ISO-10303-21;
HEADER;
FILE_DESCRIPTION(('Open CASCADE Model'),'2;1');
FILE_NAME('Open CASCADE Shape Model','2026-10-01T12:49:26',('Author'),(
    'Open CASCADE'),'Open CASCADE STEP processor 7.9','Open CASCADE 7.9'
  ,'Unknown');
FILE_SCHEMA(('AUTOMOTIVE_DESIGN { 1 0 10303 214 1 1 1 1 }'));
ENDSEC;
DATA;
#1 = APPLICATION_PROTOCOL_DEFINITION('international standard',
  'automotive_design',2000,#2);
#2 = APPLICATION_CONTEXT(
  'core data for automotive mechanical design processes');
#3 = SHAPE_DEFINITION_REPRESENTATION(#4,#10);
#4 = PRODUCT_DEFINITION_SHAPE('','',#5);
#5 = PRODUCT_DEFINITION('design','',#6,#9);
#6 = PRODUCT_DEFINITION_FORMATION('','',#7);
#7 = PRODUCT('Open CASCADE STEP translator 7.9 24',
  'Open CASCADE STEP translator 7.9 24','',(#8));
#8 = PRODUCT_CONTEXT('',#2,'mechanical');
#9 = PRODUCT_DEFINITION_CONTEXT('part definition',#2,'design');
#10 = ADVANCED_BREP_SHAPE_REPRESENTATION('',(#11,#15),#683);
#11 = AXIS2_PLACEMENT_3D('',#12,#13,#14);
#12 = CARTESIAN_POINT('',(0.,0.,0.));
#13 = DIRECTION('',(0.,0.,1.));
#14 = DIRECTION('',(1.,0.,-0.));
#15 = MANIFOLD_SOLID_BREP('',#16);
#16 = CLOSED_SHELL('',(#17,#105,#140,#144,#651,#679));
#17 = ADVANCED_FACE('',(#18),#31,.T.);
#18 = FACE_BOUND('',#19,.T.);
#19 = EDGE_LOOP('',(#20,#54,#77,#104));
#20 = ORIENTED_EDGE('',*,*,#21,.F.);
#21 = EDGE_CURVE('',#22,#22,#24,.T.);
#22 = VERTEX_POINT('',#23);
#23 = CARTESIAN_POINT('',(3.5,-8.572527594031E-16,-77.8));
#24 = SURFACE_CURVE('',#25,(#30,#42),.PCURVE_S1.);
#25 = CIRCLE('',#26,3.5);
#26 = AXIS2_PLACEMENT_3D('',#27,#28,#29);
#27 = CARTESIAN_POINT('',(0.,0.,-77.8));
#28 = DIRECTION('',(0.,0.,1.));
#29 = DIRECTION('',(1.,0.,-0.));
#30 = PCURVE('',#31,#36);
#31 = CYLINDRICAL_SURFACE('',#32,3.5);
#32 = AXIS2_PLACEMENT_3D('',#33,#34,#35);
#33 = CARTESIAN_POINT('',(0.,0.,-79.8));
#34 = DIRECTION('',(0.,0.,1.));
#35 = DIRECTION('',(1.,0.,-0.));
#36 = DEFINITIONAL_REPRESENTATION('',(#37),#41);
#37 = LINE('',#38,#39);
#38 = CARTESIAN_POINT('',(0.,2.));
#39 = VECTOR('',#40,1.);
#40 = DIRECTION('',(1.,0.));
#41 = ( GEOMETRIC_REPRESENTATION_CONTEXT(2) 
PARAMETRIC_REPRESENTATION_CONTEXT() REPRESENTATION_CONTEXT('2D SPACE',''
  ) );
#42 = PCURVE('',#43,#48);
#43 = PLANE('',#44);
#44 = AXIS2_PLACEMENT_3D('',#45,#46,#47);
#45 = CARTESIAN_POINT('',(0.,0.,-77.8));
#46 = DIRECTION('',(0.,0.,1.));
#47 = DIRECTION('',(1.,0.,-0.));
#48 = DEFINITIONAL_REPRESENTATION('',(#49),#53);
#49 = CIRCLE('',#50,3.5);
#50 = AXIS2_PLACEMENT_2D('',#51,#52);
#51 = CARTESIAN_POINT('',(0.,0.));
#52 = DIRECTION('',(1.,0.));
#53 = ( GEOMETRIC_REPRESENTATION_CONTEXT(2) 
PARAMETRIC_REPRESENTATION_CONTEXT() REPRESENTATION_CONTEXT('2D SPACE',''
  ) );
#54 = ORIENTED_EDGE('',*,*,#55,.F.);
#55 = EDGE_CURVE('',#56,#22,#58,.T.);
#56 = VERTEX_POINT('',#57);
#57 = CARTESIAN_POINT('',(3.5,-8.572527594031E-16,-79.8));
#58 = SEAM_CURVE('',#59,(#63,#70),.PCURVE_S1.);
#59 = LINE('',#60,#61);
#60 = CARTESIAN_POINT('',(3.5,-8.572527594031E-16,-79.8));
#61 = VECTOR('',#62,1.);
#62 = DIRECTION('',(0.,0.,1.));
#63 = PCURVE('',#31,#64);
#64 = DEFINITIONAL_REPRESENTATION('',(#65),#69);
#65 = LINE('',#66,#67);
#66 = CARTESIAN_POINT('',(6.28318530718,-0.));
#67 = VECTOR('',#68,1.);
#68 = DIRECTION('',(0.,1.));
#69 = ( GEOMETRIC_REPRESENTATION_CONTEXT(2) 
PARAMETRIC_REPRESENTATION_CONTEXT() REPRESENTATION_CONTEXT('2D SPACE',''
  ) );
#70 = PCURVE('',#31,#71);
#71 = DEFINITIONAL_REPRESENTATION('',(#72),#76);
#72 = LINE('',#73,#74);
#73 = CARTESIAN_POINT('',(0.,-0.));
#74 = VECTOR('',#75,1.);
#75 = DIRECTION('',(0.,1.));
#76 = ( GEOMETRIC_REPRESENTATION_CONTEXT(2) 
PARAMETRIC_REPRESENTATION_CONTEXT() REPRESENTATION_CONTEXT('2D SPACE',''
  ) );
#77 = ORIENTED_EDGE('',*,*,#78,.T.);
#78 = EDGE_CURVE('',#56,#56,#79,.T.);
#79 = SURFACE_CURVE('',#80,(#85,#92),.PCURVE_S1.);
#80 = CIRCLE('',#81,3.5);
#81 = AXIS2_PLACEMENT_3D('',#82,#83,#84);
#82 = CARTESIAN_POINT('',(0.,0.,-79.8));
#83 = DIRECTION('',(0.,0.,1.));
#84 = DIRECTION('',(1.,0.,-0.));
#85 = PCURVE('',#31,#86);
#86 = DEFINITIONAL_REPRESENTATION('',(#87),#91);
#87 = LINE('',#88,#89);
#88 = CARTESIAN_POINT('',(0.,0.));
#89 = VECTOR('',#90,1.);
#90 = DIRECTION('',(1.,0.));
#91 = ( GEOMETRIC_REPRESENTATION_CONTEXT(2) 
PARAMETRIC_REPRESENTATION_CONTEXT() REPRESENTATION_CONTEXT('2D SPACE',''
  ) );
#92 = PCURVE('',#93,#98);
#93 = PLANE('',#94);
#94 = AXIS2_PLACEMENT_3D('',#95,#96,#97);
#95 = CARTESIAN_POINT('',(0.,0.,-79.8));
#96 = DIRECTION('',(0.,0.,1.));
#97 = DIRECTION('',(1.,0.,-0.));
#98 = DEFINITIONAL_REPRESENTATION('',(#99),#103);
#99 = CIRCLE('',#100,3.5);
#100 = AXIS2_PLACEMENT_2D('',#101,#102);
#101 = CARTESIAN_POINT('',(0.,0.));
#102 = DIRECTION('',(1.,0.));
#103 = ( GEOMETRIC_REPRESENTATION_CONTEXT(2) 
PARAMETRIC_REPRESENTATION_CONTEXT() REPRESENTATION_CONTEXT('2D SPACE',''
  ) );
#104 = ORIENTED_EDGE('',*,*,#55,.T.);
#105 = ADVANCED_FACE('',(#106,#109),#43,.T.);
#106 = FACE_BOUND('',#107,.T.);
#107 = EDGE_LOOP('',(#108));
#108 = ORIENTED_EDGE('',*,*,#21,.T.);
#109 = FACE_BOUND('',#110,.T.);
#110 = EDGE_LOOP('',(#111));
#111 = ORIENTED_EDGE('',*,*,#112,.F.);
#112 = EDGE_CURVE('',#113,#113,#115,.T.);
#113 = VERTEX_POINT('',#114);
#114 = CARTESIAN_POINT('',(2.,-4.898587196589E-16,-77.8));
#115 = SURFACE_CURVE('',#116,(#121,#128),.PCURVE_S1.);
#116 = CIRCLE('',#117,2.);
#117 = AXIS2_PLACEMENT_3D('',#118,#119,#120);
#118 = CARTESIAN_POINT('',(0.,0.,-77.8));
#119 = DIRECTION('',(0.,0.,1.));
#120 = DIRECTION('',(1.,0.,-0.));
#121 = PCURVE('',#43,#122);
#122 = DEFINITIONAL_REPRESENTATION('',(#123),#127);
#123 = CIRCLE('',#124,2.);
#124 = AXIS2_PLACEMENT_2D('',#125,#126);
#125 = CARTESIAN_POINT('',(0.,0.));
#126 = DIRECTION('',(1.,0.));
#127 = ( GEOMETRIC_REPRESENTATION_CONTEXT(2) 
PARAMETRIC_REPRESENTATION_CONTEXT() REPRESENTATION_CONTEXT('2D SPACE',''
  ) );
#128 = PCURVE('',#129,#134);
#129 = CYLINDRICAL_SURFACE('',#130,2.);
#130 = AXIS2_PLACEMENT_3D('',#131,#132,#133);
#131 = CARTESIAN_POINT('',(0.,0.,-77.8));
#132 = DIRECTION('',(0.,0.,1.));
#133 = DIRECTION('',(1.,0.,-0.));
#134 = DEFINITIONAL_REPRESENTATION('',(#135),#139);
#135 = LINE('',#136,#137);
#136 = CARTESIAN_POINT('',(0.,0.));
#137 = VECTOR('',#138,1.);
#138 = DIRECTION('',(1.,0.));
#139 = ( GEOMETRIC_REPRESENTATION_CONTEXT(2) 
PARAMETRIC_REPRESENTATION_CONTEXT() REPRESENTATION_CONTEXT('2D SPACE',''
  ) );
#140 = ADVANCED_FACE('',(#141),#93,.F.);
#141 = FACE_BOUND('',#142,.T.);
#142 = EDGE_LOOP('',(#143));
#143 = ORIENTED_EDGE('',*,*,#78,.F.);
#144 = ADVANCED_FACE('',(#145,#440),#129,.T.);
#145 = FACE_BOUND('',#146,.T.);
#146 = EDGE_LOOP('',(#147,#172,#199,#200,#309,#330,#331,#332));
#147 = ORIENTED_EDGE('',*,*,#148,.T.);
#148 = EDGE_CURVE('',#149,#151,#153,.T.);
#149 = VERTEX_POINT('',#150);
#150 = CARTESIAN_POINT('',(2.,-1.653273178849E-16,-56.15));
#151 = VERTEX_POINT('',#152);
#152 = CARTESIAN_POINT('',(2.,-4.898587196589E-16,-53.8));
#153 = SEAM_CURVE('',#154,(#158,#165),.PCURVE_S1.);
#154 = LINE('',#155,#156);
#155 = CARTESIAN_POINT('',(2.,-4.898587196589E-16,-77.8));
#156 = VECTOR('',#157,1.);
#157 = DIRECTION('',(0.,0.,1.));
#158 = PCURVE('',#129,#159);
#159 = DEFINITIONAL_REPRESENTATION('',(#160),#164);
#160 = LINE('',#161,#162);
#161 = CARTESIAN_POINT('',(6.28318530718,-0.));
#162 = VECTOR('',#163,1.);
#163 = DIRECTION('',(0.,1.));
#164 = ( GEOMETRIC_REPRESENTATION_CONTEXT(2) 
PARAMETRIC_REPRESENTATION_CONTEXT() REPRESENTATION_CONTEXT('2D SPACE',''
  ) );
#165 = PCURVE('',#129,#166);
#166 = DEFINITIONAL_REPRESENTATION('',(#167),#171);
#167 = LINE('',#168,#169);
#168 = CARTESIAN_POINT('',(0.,-0.));
#169 = VECTOR('',#170,1.);
#170 = DIRECTION('',(0.,1.));
#171 = ( GEOMETRIC_REPRESENTATION_CONTEXT(2) 
PARAMETRIC_REPRESENTATION_CONTEXT() REPRESENTATION_CONTEXT('2D SPACE',''
  ) );
#172 = ORIENTED_EDGE('',*,*,#173,.F.);
#173 = EDGE_CURVE('',#151,#151,#174,.T.);
#174 = SURFACE_CURVE('',#175,(#180,#187),.PCURVE_S1.);
#175 = CIRCLE('',#176,2.);
#176 = AXIS2_PLACEMENT_3D('',#177,#178,#179);
#177 = CARTESIAN_POINT('',(0.,0.,-53.8));
#178 = DIRECTION('',(0.,0.,1.));
#179 = DIRECTION('',(1.,0.,-0.));
#180 = PCURVE('',#129,#181);
#181 = DEFINITIONAL_REPRESENTATION('',(#182),#186);
#182 = LINE('',#183,#184);
#183 = CARTESIAN_POINT('',(0.,24.));
#184 = VECTOR('',#185,1.);
#185 = DIRECTION('',(1.,0.));
#186 = ( GEOMETRIC_REPRESENTATION_CONTEXT(2) 
PARAMETRIC_REPRESENTATION_CONTEXT() REPRESENTATION_CONTEXT('2D SPACE',''
  ) );
#187 = PCURVE('',#188,#193);
#188 = PLANE('',#189);
#189 = AXIS2_PLACEMENT_3D('',#190,#191,#192);
#190 = CARTESIAN_POINT('',(0.,0.,-53.8));
#191 = DIRECTION('',(0.,0.,1.));
#192 = DIRECTION('',(1.,0.,-0.));
#193 = DEFINITIONAL_REPRESENTATION('',(#194),#198);
#194 = CIRCLE('',#195,2.);
#195 = AXIS2_PLACEMENT_2D('',#196,#197);
#196 = CARTESIAN_POINT('',(0.,0.));
#197 = DIRECTION('',(1.,0.));
#198 = ( GEOMETRIC_REPRESENTATION_CONTEXT(2) 
PARAMETRIC_REPRESENTATION_CONTEXT() REPRESENTATION_CONTEXT('2D SPACE',''
  ) );
#199 = ORIENTED_EDGE('',*,*,#148,.F.);
#200 = ORIENTED_EDGE('',*,*,#201,.F.);
#201 = EDGE_CURVE('',#202,#149,#204,.T.);
#202 = VERTEX_POINT('',#203);
#203 = CARTESIAN_POINT('',(2.,-4.898587196589E-16,-57.45));
#204 = SURFACE_CURVE('',#205,(#236,#270),.PCURVE_S1.);
#205 = B_SPLINE_CURVE_WITH_KNOTS('',8,(#206,#207,#208,#209,#210,#211,
    #212,#213,#214,#215,#216,#217,#218,#219,#220,#221,#222,#223,#224,
    #225,#226,#227,#228,#229,#230,#231,#232,#233,#234,#235),
  .UNSPECIFIED.,.F.,.F.,(9,7,7,7,9),(0.,0.172488249515,0.426542927329,
    0.827131861327,1.),.UNSPECIFIED.);
#206 = CARTESIAN_POINT('',(2.,2.488569654303E-16,-57.45));
#207 = CARTESIAN_POINT('',(2.,4.660082549862E-02,-57.45));
#208 = CARTESIAN_POINT('',(1.998759042893,9.311617957149E-02,
    -57.44618172049));
#209 = CARTESIAN_POINT('',(1.996285197961,0.139136052063,-57.43856976238
    ));
#210 = CARTESIAN_POINT('',(1.992643052434,0.184256073726,-57.42725088222
    ));
#211 = CARTESIAN_POINT('',(1.987952655124,0.228084432063,-57.41237330341
    ));
#212 = CARTESIAN_POINT('',(1.982382685674,0.270250659687,-57.3941472776)
  );
#213 = CARTESIAN_POINT('',(1.976137849448,0.310416295224,-57.3728468961)
  );
#214 = CARTESIAN_POINT('',(1.959576095935,0.404067074779,-57.31341430417
    ));
#215 = CARTESIAN_POINT('',(1.948711728039,0.454974598125,-57.27201872457
    ));
#216 = CARTESIAN_POINT('',(1.937475974567,0.500453500286,-57.22541349173
    ));
#217 = CARTESIAN_POINT('',(1.92653206677,0.540063250199,-57.17438918357)
  );
#218 = CARTESIAN_POINT('',(1.91651175373,0.573465688906,-57.11973561583)
  );
#219 = CARTESIAN_POINT('',(1.907959404299,0.600413161058,-57.06223745631
    ));
#220 = CARTESIAN_POINT('',(1.901286344209,0.620738361261,-57.00266971455
    ));
#221 = CARTESIAN_POINT('',(1.889559624516,0.655802014809,-56.84580394593
    ));
#222 = CARTESIAN_POINT('',(1.887676788723,0.660510524747,-56.74676436268
    ));
#223 = CARTESIAN_POINT('',(1.891995398176,0.648253490666,-56.64752481167
    ));
#224 = CARTESIAN_POINT('',(1.902475979741,0.619069815018,-56.55091225487
    ));
#225 = CARTESIAN_POINT('',(1.917880191664,0.573316297016,-56.4598515019)
  );
#226 = CARTESIAN_POINT('',(1.935913916499,0.511804446031,-56.37745479533
    ));
#227 = CARTESIAN_POINT('',(1.95392072691,0.436046159449,-56.30688024007)
  );
#228 = CARTESIAN_POINT('',(1.976137822213,0.310416449225,-56.22715320162
    ));
#229 = CARTESIAN_POINT('',(1.982382683771,0.270250710158,-56.20585272032
    ));
#230 = CARTESIAN_POINT('',(1.987952693141,0.228084223183,-56.18762656701
    ));
#231 = CARTESIAN_POINT('',(1.992643114216,0.184255569407,-56.17274892284
    ));
#232 = CARTESIAN_POINT('',(1.996285254011,0.139135332684,-56.16143006501
    ));
#233 = CARTESIAN_POINT('',(1.998759070696,9.311542505643E-02,
    -56.15381819251));
#234 = CARTESIAN_POINT('',(2.,4.660029236151E-02,-56.15));
#235 = CARTESIAN_POINT('',(2.,7.960204194458E-17,-56.15));
#236 = PCURVE('',#129,#237);
#237 = DEFINITIONAL_REPRESENTATION('',(#238),#269);
#238 = B_SPLINE_CURVE_WITH_KNOTS('',8,(#239,#240,#241,#242,#243,#244,
    #245,#246,#247,#248,#249,#250,#251,#252,#253,#254,#255,#256,#257,
    #258,#259,#260,#261,#262,#263,#264,#265,#266,#267,#268),
  .UNSPECIFIED.,.F.,.F.,(9,7,7,7,9),(0.,0.172488249515,0.426542927329,
    0.827131861327,1.),.UNSPECIFIED.);
#239 = CARTESIAN_POINT('',(0.,20.35));
#240 = CARTESIAN_POINT('',(2.330041274931E-02,20.35));
#241 = CARTESIAN_POINT('',(4.655812230189E-02,20.353818279508));
#242 = CARTESIAN_POINT('',(6.958724832611E-02,20.361430237617));
#243 = CARTESIAN_POINT('',(9.220484897792E-02,20.372749117779));
#244 = CARTESIAN_POINT('',(0.11423028597,20.387626696583));
#245 = CARTESIAN_POINT('',(0.135487006452,20.405852722398));
#246 = CARTESIAN_POINT('',(0.155806741698,20.427153103892));
#247 = CARTESIAN_POINT('',(0.203358713766,20.486585695828));
#248 = CARTESIAN_POINT('',(0.229369297832,20.527981275423));
#249 = CARTESIAN_POINT('',(0.25277481987,20.574586508262));
#250 = CARTESIAN_POINT('',(0.27330980542,20.625610816423));
#251 = CARTESIAN_POINT('',(0.290741450771,20.680264384167));
#252 = CARTESIAN_POINT('',(0.304876919079,20.737762543686));
#253 = CARTESIAN_POINT('',(0.3155728423,20.797330285441));
#254 = CARTESIAN_POINT('',(0.334059159908,20.954196054065));
#255 = CARTESIAN_POINT('',(0.336590328302,21.053235637311));
#256 = CARTESIAN_POINT('',(0.330096285845,21.152475188325));
#257 = CARTESIAN_POINT('',(0.314585975033,21.249087745128));
#258 = CARTESIAN_POINT('',(0.290454883321,21.340148498096));
#259 = CARTESIAN_POINT('',(0.258464762591,21.422545204666));
#260 = CARTESIAN_POINT('',(0.219596363344,21.493119759923));
#261 = CARTESIAN_POINT('',(0.155806819893,21.572846798376));
#262 = CARTESIAN_POINT('',(0.135487031526,21.594147279675));
#263 = CARTESIAN_POINT('',(0.114230179775,21.612373432984));
#264 = CARTESIAN_POINT('',(9.22045950485E-02,21.62725107716));
#265 = CARTESIAN_POINT('',(6.958688830374E-02,21.638569934983));
#266 = CARTESIAN_POINT('',(4.655774579384E-02,21.646181807482));
#267 = CARTESIAN_POINT('',(2.330014618075E-02,21.65));
#268 = CARTESIAN_POINT('',(0.,21.65));
#269 = ( GEOMETRIC_REPRESENTATION_CONTEXT(2) 
PARAMETRIC_REPRESENTATION_CONTEXT() REPRESENTATION_CONTEXT('2D SPACE',''
  ) );
#270 = PCURVE('',#271,#276);
#271 = CYLINDRICAL_SURFACE('',#272,0.65);
#272 = AXIS2_PLACEMENT_3D('',#273,#274,#275);
#273 = CARTESIAN_POINT('',(-4.,0.,-56.8));
#274 = DIRECTION('',(1.,0.,0.));
#275 = DIRECTION('',(-0.,0.,1.));
#276 = DEFINITIONAL_REPRESENTATION('',(#277),#308);
#277 = B_SPLINE_CURVE_WITH_KNOTS('',8,(#278,#279,#280,#281,#282,#283,
    #284,#285,#286,#287,#288,#289,#290,#291,#292,#293,#294,#295,#296,
    #297,#298,#299,#300,#301,#302,#303,#304,#305,#306,#307),
  .UNSPECIFIED.,.F.,.F.,(9,7,7,7,9),(0.,0.172488249515,0.426542927329,
    0.827131861327,1.),.UNSPECIFIED.);
#278 = CARTESIAN_POINT('',(3.14159265359,6.));
#279 = CARTESIAN_POINT('',(3.21328623128,6.));
#280 = CARTESIAN_POINT('',(3.284848164976,5.998759042893));
#281 = CARTESIAN_POINT('',(3.35620988726,5.996285197961));
#282 = CARTESIAN_POINT('',(3.42730098846,5.992643052434));
#283 = CARTESIAN_POINT('',(3.498043045075,5.987952655124));
#284 = CARTESIAN_POINT('',(3.568341249249,5.982382685674));
#285 = CARTESIAN_POINT('',(3.638073839288,5.976137849448));
#286 = CARTESIAN_POINT('',(3.808716214175,5.959576095935));
#287 = CARTESIAN_POINT('',(3.908968100219,5.948711728039));
#288 = CARTESIAN_POINT('',(4.008061596839,5.937475974567));
#289 = CARTESIAN_POINT('',(4.106192202958,5.92653206677));
#290 = CARTESIAN_POINT('',(4.203534634489,5.91651175373));
#291 = CARTESIAN_POINT('',(4.300252877125,5.907959404299));
#292 = CARTESIAN_POINT('',(4.39650996634,5.901286344209));
#293 = CARTESIAN_POINT('',(4.643797400209,5.889559624516));
#294 = CARTESIAN_POINT('',(4.794077018055,5.887676788723));
#295 = CARTESIAN_POINT('',(4.944240512121,5.891995398176));
#296 = CARTESIAN_POINT('',(5.095042186872,5.902475979741));
#297 = CARTESIAN_POINT('',(5.247152472042,5.917880191664));
#298 = CARTESIAN_POINT('',(5.401206388027,5.935913916499));
#299 = CARTESIAN_POINT('',(5.557792216102,5.95392072691));
#300 = CARTESIAN_POINT('',(5.786703840875,5.976137822213));
#301 = CARTESIAN_POINT('',(5.856436647886,5.982382683771));
#302 = CARTESIAN_POINT('',(5.926735286994,5.987952693141));
#303 = CARTESIAN_POINT('',(5.997477792709,5.992643114216));
#304 = CARTESIAN_POINT('',(6.068569200946,5.996285254011));
#305 = CARTESIAN_POINT('',(6.139930960075,5.998759070696));
#306 = CARTESIAN_POINT('',(6.2114925497,6.));
#307 = CARTESIAN_POINT('',(6.28318530718,6.));
#308 = ( GEOMETRIC_REPRESENTATION_CONTEXT(2) 
PARAMETRIC_REPRESENTATION_CONTEXT() REPRESENTATION_CONTEXT('2D SPACE',''
  ) );
#309 = ORIENTED_EDGE('',*,*,#310,.F.);
#310 = EDGE_CURVE('',#113,#202,#311,.T.);
#311 = SEAM_CURVE('',#312,(#316,#323),.PCURVE_S1.);
#312 = LINE('',#313,#314);
#313 = CARTESIAN_POINT('',(2.,-4.898587196589E-16,-77.8));
#314 = VECTOR('',#315,1.);
#315 = DIRECTION('',(0.,0.,1.));
#316 = PCURVE('',#129,#317);
#317 = DEFINITIONAL_REPRESENTATION('',(#318),#322);
#318 = LINE('',#319,#320);
#319 = CARTESIAN_POINT('',(6.28318530718,-0.));
#320 = VECTOR('',#321,1.);
#321 = DIRECTION('',(0.,1.));
#322 = ( GEOMETRIC_REPRESENTATION_CONTEXT(2) 
PARAMETRIC_REPRESENTATION_CONTEXT() REPRESENTATION_CONTEXT('2D SPACE',''
  ) );
#323 = PCURVE('',#129,#324);
#324 = DEFINITIONAL_REPRESENTATION('',(#325),#329);
#325 = LINE('',#326,#327);
#326 = CARTESIAN_POINT('',(0.,-0.));
#327 = VECTOR('',#328,1.);
#328 = DIRECTION('',(0.,1.));
#329 = ( GEOMETRIC_REPRESENTATION_CONTEXT(2) 
PARAMETRIC_REPRESENTATION_CONTEXT() REPRESENTATION_CONTEXT('2D SPACE',''
  ) );
#330 = ORIENTED_EDGE('',*,*,#112,.T.);
#331 = ORIENTED_EDGE('',*,*,#310,.T.);
#332 = ORIENTED_EDGE('',*,*,#333,.F.);
#333 = EDGE_CURVE('',#149,#202,#334,.T.);
#334 = SURFACE_CURVE('',#335,(#368,#404),.PCURVE_S1.);
#335 = B_SPLINE_CURVE_WITH_KNOTS('',7,(#336,#337,#338,#339,#340,#341,
    #342,#343,#344,#345,#346,#347,#348,#349,#350,#351,#352,#353,#354,
    #355,#356,#357,#358,#359,#360,#361,#362,#363,#364,#365,#366,#367),
  .UNSPECIFIED.,.F.,.F.,(8,6,6,6,6,8),(0.,0.172679798639,0.437437578674,
    0.572993445197,0.827328963195,1.),.UNSPECIFIED.);
#336 = CARTESIAN_POINT('',(2.,-1.110223024625E-16,-56.15));
#337 = CARTESIAN_POINT('',(2.,-5.325808628414E-02,-56.15));
#338 = CARTESIAN_POINT('',(1.998345390524,-0.106402210667,
    -56.15509103934));
#339 = CARTESIAN_POINT('',(1.995049082422,-0.1587763569,-56.16523375658)
  );
#340 = CARTESIAN_POINT('',(1.990237022446,-0.209735790553,
    -56.18026447897));
#341 = CARTESIAN_POINT('',(1.984145376254,-0.258665501247,
    -56.19989705925));
#342 = CARTESIAN_POINT('',(1.977094613934,-0.305006135008,
    -56.22371971181));
#343 = CARTESIAN_POINT('',(1.957704980941,-0.414647559369,
    -56.29330027552));
#344 = CARTESIAN_POINT('',(1.944524751962,-0.473964355064,
    -56.34407531939));
#345 = CARTESIAN_POINT('',(1.931037469338,-0.525238752015,
    -56.40209294825));
#346 = CARTESIAN_POINT('',(1.918449908752,-0.567736107851,
    -56.46592279315));
#347 = CARTESIAN_POINT('',(1.907855796652,-0.600957115463,
    -56.53414154361));
#348 = CARTESIAN_POINT('',(1.900026603855,-0.624590992606,
    -56.60535822836));
#349 = CARTESIAN_POINT('',(1.892948837914,-0.645601315669,
    -56.71549819895));
#350 = CARTESIAN_POINT('',(1.891376907083,-0.650163986781,
    -56.75322554637));
#351 = CARTESIAN_POINT('',(1.890682567434,-0.652152839566,
    -56.79119730337));
#352 = CARTESIAN_POINT('',(1.890889916606,-0.651557735789,
    -56.82922679554));
#353 = CARTESIAN_POINT('',(1.891994481917,-0.648380398339,-56.8671273212
    ));
#354 = CARTESIAN_POINT('',(1.893963371988,-0.642634523838,
    -56.90471191424));
#355 = CARTESIAN_POINT('',(1.901936475046,-0.618794427833,
    -57.01136637279));
#356 = CARTESIAN_POINT('',(1.909967047383,-0.594286072132,
    -57.07919448415));
#357 = CARTESIAN_POINT('',(1.920438577539,-0.56097345897,-57.14406029484
    ));
#358 = CARTESIAN_POINT('',(1.932625556002,-0.519153041428,
    -57.20471807231));
#359 = CARTESIAN_POINT('',(1.945560005508,-0.469287598381,
    -57.25990585744));
#360 = CARTESIAN_POINT('',(1.958166895634,-0.412035597356,
    -57.30835732597));
#361 = CARTESIAN_POINT('',(1.977094264348,-0.30500811179,-57.37627903367
    ));
#362 = CARTESIAN_POINT('',(1.984145194416,-0.258667121059,
    -57.40010242236));
#363 = CARTESIAN_POINT('',(1.990237185979,-0.209735447518,
    -57.41973609114));
#364 = CARTESIAN_POINT('',(1.995049433367,-0.15877354062,-57.43476732702
    ));
#365 = CARTESIAN_POINT('',(1.998345637569,-0.106397734083,
    -57.44490971625));
#366 = CARTESIAN_POINT('',(2.,-5.325414010787E-02,-57.45));
#367 = CARTESIAN_POINT('',(2.,0.,-57.45));
#368 = PCURVE('',#129,#369);
#369 = DEFINITIONAL_REPRESENTATION('',(#370),#403);
#370 = B_SPLINE_CURVE_WITH_KNOTS('',7,(#371,#372,#373,#374,#375,#376,
    #377,#378,#379,#380,#381,#382,#383,#384,#385,#386,#387,#388,#389,
    #390,#391,#392,#393,#394,#395,#396,#397,#398,#399,#400,#401,#402),
  .UNSPECIFIED.,.F.,.F.,(8,6,6,6,6,8),(0.,0.172679798639,0.437437578674,
    0.572993445197,0.827328963195,1.),.UNSPECIFIED.);
#371 = CARTESIAN_POINT('',(6.28318530718,21.65));
#372 = CARTESIAN_POINT('',(6.256556264038,21.65));
#373 = CARTESIAN_POINT('',(6.229984158491,21.644908960656));
#374 = CARTESIAN_POINT('',(6.203766399071,21.63476624342));
#375 = CARTESIAN_POINT('',(6.178194517332,21.619735521022));
#376 = CARTESIAN_POINT('',(6.153555861004,21.600102940742));
#377 = CARTESIAN_POINT('',(6.130125619897,21.576280288184));
#378 = CARTESIAN_POINT('',(6.074454263251,21.506699724474));
#379 = CARTESIAN_POINT('',(6.04410139571,21.455924680607));
#380 = CARTESIAN_POINT('',(6.017619171837,21.397907051743));
#381 = CARTESIAN_POINT('',(5.995467182075,21.334077206846));
#382 = CARTESIAN_POINT('',(5.978034140836,21.265858456382));
#383 = CARTESIAN_POINT('',(5.965585847256,21.19464177164));
#384 = CARTESIAN_POINT('',(5.954500626849,21.084501801046));
#385 = CARTESIAN_POINT('',(5.952087715796,21.046774453628));
#386 = CARTESIAN_POINT('',(5.951034482235,21.008802696622));
#387 = CARTESIAN_POINT('',(5.951349578341,20.970773204457));
#388 = CARTESIAN_POINT('',(5.95303144835,20.932872678798));
#389 = CARTESIAN_POINT('',(5.956068333711,20.895288085757));
#390 = CARTESIAN_POINT('',(5.968637348688,20.788633627205));
#391 = CARTESIAN_POINT('',(5.981532067904,20.720805515846));
#392 = CARTESIAN_POINT('',(5.998990929511,20.65593970516));
#393 = CARTESIAN_POINT('',(6.020760074009,20.595281927687));
#394 = CARTESIAN_POINT('',(6.046494509476,20.540094142555));
#395 = CARTESIAN_POINT('',(6.075780508962,20.491642674028));
#396 = CARTESIAN_POINT('',(6.13012461617,20.423720966321));
#397 = CARTESIAN_POINT('',(6.153555049035,20.399897577633));
#398 = CARTESIAN_POINT('',(6.178194696015,20.380263908853));
#399 = CARTESIAN_POINT('',(6.203767813785,20.365232672972));
#400 = CARTESIAN_POINT('',(6.229986398846,20.355090283745));
#401 = CARTESIAN_POINT('',(6.256558237126,20.35));
#402 = CARTESIAN_POINT('',(6.28318530718,20.35));
#403 = ( GEOMETRIC_REPRESENTATION_CONTEXT(2) 
PARAMETRIC_REPRESENTATION_CONTEXT() REPRESENTATION_CONTEXT('2D SPACE',''
  ) );
#404 = PCURVE('',#271,#405);
#405 = DEFINITIONAL_REPRESENTATION('',(#406),#439);
#406 = B_SPLINE_CURVE_WITH_KNOTS('',7,(#407,#408,#409,#410,#411,#412,
    #413,#414,#415,#416,#417,#418,#419,#420,#421,#422,#423,#424,#425,
    #426,#427,#428,#429,#430,#431,#432,#433,#434,#435,#436,#437,#438),
  .UNSPECIFIED.,.F.,.F.,(8,6,6,6,6,8),(0.,0.172679798639,0.437437578674,
    0.572993445197,0.827328963195,1.),.UNSPECIFIED.);
#407 = CARTESIAN_POINT('',(0.,6.));
#408 = CARTESIAN_POINT('',(8.193551736021E-02,6.));
#409 = CARTESIAN_POINT('',(0.163695509395,5.998345390524));
#410 = CARTESIAN_POINT('',(0.245170268235,5.995049082422));
#411 = CARTESIAN_POINT('',(0.326246401505,5.990237022446));
#412 = CARTESIAN_POINT('',(0.406790374786,5.984145376254));
#413 = CARTESIAN_POINT('',(0.486623258277,5.977094613934));
#414 = CARTESIAN_POINT('',(0.686402407238,5.957704980941));
#415 = CARTESIAN_POINT('',(0.805309356652,5.944524751962));
#416 = CARTESIAN_POINT('',(0.922626786048,5.931037469338));
#417 = CARTESIAN_POINT('',(1.038680045798,5.918449908752));
#418 = CARTESIAN_POINT('',(1.153775881902,5.907855796652));
#419 = CARTESIAN_POINT('',(1.268212383782,5.900026603855));
#420 = CARTESIAN_POINT('',(1.44071396973,5.892948837914));
#421 = CARTESIAN_POINT('',(1.499043294553,5.891376907083));
#422 = CARTESIAN_POINT('',(1.55732549811,5.890682567434));
#423 = CARTESIAN_POINT('',(1.615596946674,5.890889916606));
#424 = CARTESIAN_POINT('',(1.673893770741,5.891994481917));
#425 = CARTESIAN_POINT('',(1.732252019041,5.893963371988));
#426 = CARTESIAN_POINT('',(1.900384987739,5.901936475046));
#427 = CARTESIAN_POINT('',(2.01044824416,5.909967047383));
#428 = CARTESIAN_POINT('',(2.121172129809,5.920438577539));
#429 = CARTESIAN_POINT('',(2.232814078635,5.932625556002));
#430 = CARTESIAN_POINT('',(2.345639763182,5.945560005508));
#431 = CARTESIAN_POINT('',(2.459949538299,5.958166895634));
#432 = CARTESIAN_POINT('',(2.654965793391,5.977094264348));
#433 = CARTESIAN_POINT('',(2.734799739998,5.984145194416));
#434 = CARTESIAN_POINT('',(2.815347069331,5.990237185979));
#435 = CARTESIAN_POINT('',(2.896426917935,5.995049433367));
#436 = CARTESIAN_POINT('',(2.977904021934,5.998345637569));
#437 = CARTESIAN_POINT('',(3.05966320727,6.));
#438 = CARTESIAN_POINT('',(3.14159265359,6.));
#439 = ( GEOMETRIC_REPRESENTATION_CONTEXT(2) 
PARAMETRIC_REPRESENTATION_CONTEXT() REPRESENTATION_CONTEXT('2D SPACE',''
  ) );
#440 = FACE_BOUND('',#441,.T.);
#441 = EDGE_LOOP('',(#442));
#442 = ORIENTED_EDGE('',*,*,#443,.T.);
#443 = EDGE_CURVE('',#444,#444,#446,.T.);
#444 = VERTEX_POINT('',#445);
#445 = CARTESIAN_POINT('',(-2.,1.592040838892E-16,-56.15));
#446 = SURFACE_CURVE('',#447,(#513,#582),.PCURVE_S1.);
#447 = B_SPLINE_CURVE_WITH_KNOTS('',8,(#448,#449,#450,#451,#452,#453,
    #454,#455,#456,#457,#458,#459,#460,#461,#462,#463,#464,#465,#466,
    #467,#468,#469,#470,#471,#472,#473,#474,#475,#476,#477,#478,#479,
    #480,#481,#482,#483,#484,#485,#486,#487,#488,#489,#490,#491,#492,
    #493,#494,#495,#496,#497,#498,#499,#500,#501,#502,#503,#504,#505,
    #506,#507,#508,#509,#510,#511,#512),.UNSPECIFIED.,.T.,.F.,(9,7,7,7,7
    ,7,7,7,7,9),(0.,8.629097716749E-02,0.218594858293,0.286334387035,
    0.413430089887,0.49971668862,0.586009681262,0.713108996751,
    0.913516955153,1.),.UNSPECIFIED.);
#448 = CARTESIAN_POINT('',(-2.,2.22044604925E-16,-56.15));
#449 = CARTESIAN_POINT('',(-2.,-4.660082549861E-02,-56.15));
#450 = CARTESIAN_POINT('',(-1.998759042893,-9.31161795715E-02,
    -56.1538182795));
#451 = CARTESIAN_POINT('',(-1.996285197961,-0.139136052063,
    -56.16143023761));
#452 = CARTESIAN_POINT('',(-1.992643052434,-0.184256073726,
    -56.17274911777));
#453 = CARTESIAN_POINT('',(-1.987952655124,-0.228084432063,
    -56.18762669658));
#454 = CARTESIAN_POINT('',(-1.982382685674,-0.270250659687,
    -56.20585272239));
#455 = CARTESIAN_POINT('',(-1.976137849448,-0.310416295224,
    -56.22715310389));
#456 = CARTESIAN_POINT('',(-1.959171920579,-0.40635254154,
    -56.28803609713));
#457 = CARTESIAN_POINT('',(-1.947819809207,-0.45913515614,
    -56.33138155842));
#458 = CARTESIAN_POINT('',(-1.936095200322,-0.506010853158,
    -56.38033633743));
#459 = CARTESIAN_POINT('',(-1.924743689045,-0.546487429933,
    -56.4340078707));
#460 = CARTESIAN_POINT('',(-1.914477116714,-0.580193985705,
    -56.49150482457));
#461 = CARTESIAN_POINT('',(-1.905898498453,-0.606865584748,
    -56.5519457148));
#462 = CARTESIAN_POINT('',(-1.899441470918,-0.626327957652,-56.614463718
    ));
#463 = CARTESIAN_POINT('',(-1.89324842572,-0.644711990332,
    -56.71083619227));
#464 = CARTESIAN_POINT('',(-1.891769889791,-0.649023319003,
    -56.74379370951));
#465 = CARTESIAN_POINT('',(-1.890942944803,-0.651407019772,
    -56.7769578945));
#466 = CARTESIAN_POINT('',(-1.89078624202,-0.651855287678,
    -56.81021204946));
#467 = CARTESIAN_POINT('',(-1.891304128597,-0.650366234245,
    -56.84343949266));
#468 = CARTESIAN_POINT('',(-1.892486704435,-0.646943929714,
    -56.87652346946));
#469 = CARTESIAN_POINT('',(-1.894309879033,-0.641598445266,
    -56.90934706332));
#470 = CARTESIAN_POINT('',(-1.901286344209,-0.620738361261,
    -57.00266971455));
#471 = CARTESIAN_POINT('',(-1.907959404299,-0.600413161058,
    -57.06223745631));
#472 = CARTESIAN_POINT('',(-1.91651175373,-0.573465688906,
    -57.11973561583));
#473 = CARTESIAN_POINT('',(-1.92653206677,-0.540063250199,
    -57.17438918357));
#474 = CARTESIAN_POINT('',(-1.937475974567,-0.500453500286,
    -57.22541349173));
#475 = CARTESIAN_POINT('',(-1.948711728039,-0.454974598125,
    -57.27201872457));
#476 = CARTESIAN_POINT('',(-1.959576095935,-0.404067074779,
    -57.31341430417));
#477 = CARTESIAN_POINT('',(-1.97613754356,-0.310418024908,
    -57.37284579841));
#478 = CARTESIAN_POINT('',(-1.982382461899,-0.270252368742,
    -57.39414657519));
#479 = CARTESIAN_POINT('',(-1.987952689143,-0.228084825096,
    -57.41237346535));
#480 = CARTESIAN_POINT('',(-1.992643309673,-0.184254494069,
    -57.42725170908));
#481 = CARTESIAN_POINT('',(-1.996285509943,-0.139132613168,
    -57.43857072298));
#482 = CARTESIAN_POINT('',(-1.998759228177,-9.311183558894E-02,
    -57.44618228719));
#483 = CARTESIAN_POINT('',(-2.,-4.659737259441E-02,-57.45));
#484 = CARTESIAN_POINT('',(-2.,4.660082549864E-02,-57.45));
#485 = CARTESIAN_POINT('',(-1.998759042893,9.311617957153E-02,
    -57.44618172049));
#486 = CARTESIAN_POINT('',(-1.996285197961,0.139136052063,
    -57.43856976238));
#487 = CARTESIAN_POINT('',(-1.992643052434,0.184256073726,
    -57.42725088222));
#488 = CARTESIAN_POINT('',(-1.987952655124,0.228084432063,
    -57.41237330341));
#489 = CARTESIAN_POINT('',(-1.982382685674,0.270250659687,-57.3941472776
    ));
#490 = CARTESIAN_POINT('',(-1.976137849448,0.310416295224,-57.3728468961
    ));
#491 = CARTESIAN_POINT('',(-1.959576095935,0.404067074779,
    -57.31341430417));
#492 = CARTESIAN_POINT('',(-1.948711728039,0.454974598125,
    -57.27201872457));
#493 = CARTESIAN_POINT('',(-1.937475974567,0.500453500286,
    -57.22541349173));
#494 = CARTESIAN_POINT('',(-1.92653206677,0.540063250199,-57.17438918357
    ));
#495 = CARTESIAN_POINT('',(-1.91651175373,0.573465688906,-57.11973561583
    ));
#496 = CARTESIAN_POINT('',(-1.907959404299,0.600413161058,
    -57.06223745631));
#497 = CARTESIAN_POINT('',(-1.901286344209,0.620738361261,
    -57.00266971455));
#498 = CARTESIAN_POINT('',(-1.889559624516,0.655802014808,
    -56.84580394593));
#499 = CARTESIAN_POINT('',(-1.887676788722,0.660510524748,
    -56.74676436268));
#500 = CARTESIAN_POINT('',(-1.891995398177,0.648253490664,
    -56.64752481167));
#501 = CARTESIAN_POINT('',(-1.90247597974,0.619069815022,-56.55091225487
    ));
#502 = CARTESIAN_POINT('',(-1.917880191664,0.573316297014,-56.4598515019
    ));
#503 = CARTESIAN_POINT('',(-1.935913916499,0.511804446032,
    -56.37745479533));
#504 = CARTESIAN_POINT('',(-1.95392072691,0.436046159449,-56.30688024007
    ));
#505 = CARTESIAN_POINT('',(-1.976137822213,0.310416449225,
    -56.22715320162));
#506 = CARTESIAN_POINT('',(-1.982382683771,0.270250710158,
    -56.20585272032));
#507 = CARTESIAN_POINT('',(-1.987952693141,0.228084223183,
    -56.18762656701));
#508 = CARTESIAN_POINT('',(-1.992643114216,0.184255569407,
    -56.17274892284));
#509 = CARTESIAN_POINT('',(-1.996285254011,0.139135332684,
    -56.16143006501));
#510 = CARTESIAN_POINT('',(-1.998759070696,9.311542505642E-02,
    -56.15381819251));
#511 = CARTESIAN_POINT('',(-2.,4.660029236153E-02,-56.15));
#512 = CARTESIAN_POINT('',(-2.,2.22044604925E-16,-56.15));
#513 = PCURVE('',#129,#514);
#514 = DEFINITIONAL_REPRESENTATION('',(#515),#581);
#515 = B_SPLINE_CURVE_WITH_KNOTS('',8,(#516,#517,#518,#519,#520,#521,
    #522,#523,#524,#525,#526,#527,#528,#529,#530,#531,#532,#533,#534,
    #535,#536,#537,#538,#539,#540,#541,#542,#543,#544,#545,#546,#547,
    #548,#549,#550,#551,#552,#553,#554,#555,#556,#557,#558,#559,#560,
    #561,#562,#563,#564,#565,#566,#567,#568,#569,#570,#571,#572,#573,
    #574,#575,#576,#577,#578,#579,#580),.UNSPECIFIED.,.T.,.F.,(9,7,7,7,7
    ,7,7,7,7,9),(0.,8.629097716749E-02,0.218594858293,0.286334387035,
    0.413430089887,0.49971668862,0.586009681262,0.713108996751,
    0.913516955153,1.),.UNSPECIFIED.);
#516 = CARTESIAN_POINT('',(3.14159265359,21.65));
#517 = CARTESIAN_POINT('',(3.164893066339,21.65));
#518 = CARTESIAN_POINT('',(3.188150775892,21.646181720492));
#519 = CARTESIAN_POINT('',(3.211179901916,21.638569762383));
#520 = CARTESIAN_POINT('',(3.233797502568,21.627250882221));
#521 = CARTESIAN_POINT('',(3.25582293956,21.612373303417));
#522 = CARTESIAN_POINT('',(3.277079660042,21.594147277602));
#523 = CARTESIAN_POINT('',(3.297399395287,21.572846896108));
#524 = CARTESIAN_POINT('',(3.346111832353,21.511963902862));
#525 = CARTESIAN_POINT('',(3.373088348174,21.468618441574));
#526 = CARTESIAN_POINT('',(3.39722795498,21.419663662567));
#527 = CARTESIAN_POINT('',(3.418234783813,21.365992129294));
#528 = CARTESIAN_POINT('',(3.435848169159,21.308495175422));
#529 = CARTESIAN_POINT('',(3.449855893329,21.248054285197));
#530 = CARTESIAN_POINT('',(3.460108550653,21.185536281995));
#531 = CARTESIAN_POINT('',(3.46980811851,21.089163807725));
#532 = CARTESIAN_POINT('',(3.47208701721,21.056206290482));
#533 = CARTESIAN_POINT('',(3.473348515949,21.023042105499));
#534 = CARTESIAN_POINT('',(3.473585930481,20.989787950539));
#535 = CARTESIAN_POINT('',(3.472797681175,20.956560507335));
#536 = CARTESIAN_POINT('',(3.470987291079,20.923476530538));
#537 = CARTESIAN_POINT('',(3.468163383994,20.890652936674));
#538 = CARTESIAN_POINT('',(3.45716549589,20.797330285441));
#539 = CARTESIAN_POINT('',(3.446469572669,20.737762543686));
#540 = CARTESIAN_POINT('',(3.432334104361,20.680264384167));
#541 = CARTESIAN_POINT('',(3.414902459009,20.625610816423));
#542 = CARTESIAN_POINT('',(3.39436747346,20.574586508262));
#543 = CARTESIAN_POINT('',(3.370961951422,20.527981275423));
#544 = CARTESIAN_POINT('',(3.344951367356,20.486585695828));
#545 = CARTESIAN_POINT('',(3.297400273549,20.427154201583));
#546 = CARTESIAN_POINT('',(3.277080519951,20.405853424805));
#547 = CARTESIAN_POINT('',(3.255823132372,20.387626534645));
#548 = CARTESIAN_POINT('',(3.233796705869,20.372748290912));
#549 = CARTESIAN_POINT('',(3.211178177587,20.361429277012));
#550 = CARTESIAN_POINT('',(3.188148602354,20.353817712809));
#551 = CARTESIAN_POINT('',(3.164891339887,20.35));
#552 = CARTESIAN_POINT('',(3.11829224084,20.35));
#553 = CARTESIAN_POINT('',(3.095034531288,20.353818279508));
#554 = CARTESIAN_POINT('',(3.072005405264,20.361430237617));
#555 = CARTESIAN_POINT('',(3.049387804612,20.372749117779));
#556 = CARTESIAN_POINT('',(3.02736236762,20.387626696583));
#557 = CARTESIAN_POINT('',(3.006105647138,20.405852722398));
#558 = CARTESIAN_POINT('',(2.985785911892,20.427153103892));
#559 = CARTESIAN_POINT('',(2.938233939823,20.486585695828));
#560 = CARTESIAN_POINT('',(2.912223355758,20.527981275423));
#561 = CARTESIAN_POINT('',(2.88881783372,20.574586508262));
#562 = CARTESIAN_POINT('',(2.86828284817,20.625610816423));
#563 = CARTESIAN_POINT('',(2.850851202819,20.680264384167));
#564 = CARTESIAN_POINT('',(2.83671573451,20.737762543686));
#565 = CARTESIAN_POINT('',(2.82601981129,20.797330285441));
#566 = CARTESIAN_POINT('',(2.807533493682,20.954196054064));
#567 = CARTESIAN_POINT('',(2.805002325287,21.053235637313));
#568 = CARTESIAN_POINT('',(2.811496367746,21.152475188324));
#569 = CARTESIAN_POINT('',(2.827006678555,21.249087745126));
#570 = CARTESIAN_POINT('',(2.85113777027,21.340148498098));
#571 = CARTESIAN_POINT('',(2.883127890998,21.422545204665));
#572 = CARTESIAN_POINT('',(2.921996290246,21.493119759922));
#573 = CARTESIAN_POINT('',(2.985785833697,21.572846798376));
#574 = CARTESIAN_POINT('',(3.006105622063,21.594147279675));
#575 = CARTESIAN_POINT('',(3.027362473815,21.612373432984));
#576 = CARTESIAN_POINT('',(3.049388058541,21.62725107716));
#577 = CARTESIAN_POINT('',(3.072005765286,21.638569934983));
#578 = CARTESIAN_POINT('',(3.095034907796,21.646181807482));
#579 = CARTESIAN_POINT('',(3.118292507409,21.65));
#580 = CARTESIAN_POINT('',(3.14159265359,21.65));
#581 = ( GEOMETRIC_REPRESENTATION_CONTEXT(2) 
PARAMETRIC_REPRESENTATION_CONTEXT() REPRESENTATION_CONTEXT('2D SPACE',''
  ) );
#582 = PCURVE('',#271,#583);
#583 = DEFINITIONAL_REPRESENTATION('',(#584),#650);
#584 = B_SPLINE_CURVE_WITH_KNOTS('',8,(#585,#586,#587,#588,#589,#590,
    #591,#592,#593,#594,#595,#596,#597,#598,#599,#600,#601,#602,#603,
    #604,#605,#606,#607,#608,#609,#610,#611,#612,#613,#614,#615,#616,
    #617,#618,#619,#620,#621,#622,#623,#624,#625,#626,#627,#628,#629,
    #630,#631,#632,#633,#634,#635,#636,#637,#638,#639,#640,#641,#642,
    #643,#644,#645,#646,#647,#648,#649),.UNSPECIFIED.,.F.,.F.,(9,7,7,7,7
    ,7,7,7,7,9),(0.,8.629097716749E-02,0.218594858293,0.286334387035,
    0.413430089887,0.49971668862,0.586009681262,0.713108996751,
    0.913516955153,1.),.UNSPECIFIED.);
#585 = CARTESIAN_POINT('',(0.,2.));
#586 = CARTESIAN_POINT('',(7.169357769016E-02,2.));
#587 = CARTESIAN_POINT('',(0.143255511386,2.001240957107));
#588 = CARTESIAN_POINT('',(0.21461723367,2.003714802039));
#589 = CARTESIAN_POINT('',(0.28570833487,2.007356947566));
#590 = CARTESIAN_POINT('',(0.356450391485,2.012047344876));
#591 = CARTESIAN_POINT('',(0.426748595659,2.017617314326));
#592 = CARTESIAN_POINT('',(0.496481185698,2.023862150552));
#593 = CARTESIAN_POINT('',(0.671287941039,2.040828079421));
#594 = CARTESIAN_POINT('',(0.775582619299,2.052180190793));
#595 = CARTESIAN_POINT('',(0.878632750025,2.063904799678));
#596 = CARTESIAN_POINT('',(0.980653415923,2.075256310955));
#597 = CARTESIAN_POINT('',(1.081840984337,2.085522883286));
#598 = CARTESIAN_POINT('',(1.182385007372,2.094101501547));
#599 = CARTESIAN_POINT('',(1.282473431756,2.100558529082));
#600 = CARTESIAN_POINT('',(1.433412319461,2.10675157428));
#601 = CARTESIAN_POINT('',(1.484460963347,2.108230110209));
#602 = CARTESIAN_POINT('',(1.535469671777,2.109057055197));
#603 = CARTESIAN_POINT('',(1.586461222392,2.10921375798));
#604 = CARTESIAN_POINT('',(1.637458255699,2.108695871403));
#605 = CARTESIAN_POINT('',(1.688483332816,2.107513295565));
#606 = CARTESIAN_POINT('',(1.739558993229,2.105690120967));
#607 = CARTESIAN_POINT('',(1.88667534084,2.098713655791));
#608 = CARTESIAN_POINT('',(1.982932430055,2.092040595701));
#609 = CARTESIAN_POINT('',(2.07965067269,2.08348824627));
#610 = CARTESIAN_POINT('',(2.176993104222,2.07346793323));
#611 = CARTESIAN_POINT('',(2.27512371034,2.062524025433));
#612 = CARTESIAN_POINT('',(2.374217206961,2.051288271961));
#613 = CARTESIAN_POINT('',(2.474469093005,2.040423904065));
#614 = CARTESIAN_POINT('',(2.64510831621,2.02386245644));
#615 = CARTESIAN_POINT('',(2.714841253346,2.017617538101));
#616 = CARTESIAN_POINT('',(2.785141820831,2.012047310857));
#617 = CARTESIAN_POINT('',(2.855886993633,2.007356690327));
#618 = CARTESIAN_POINT('',(2.926980831935,2.003714490057));
#619 = CARTESIAN_POINT('',(2.998343818268,2.001240771823));
#620 = CARTESIAN_POINT('',(3.06990438806,2.));
#621 = CARTESIAN_POINT('',(3.21328623128,2.));
#622 = CARTESIAN_POINT('',(3.284848164976,2.001240957107));
#623 = CARTESIAN_POINT('',(3.356209887259,2.003714802039));
#624 = CARTESIAN_POINT('',(3.427300988459,2.007356947566));
#625 = CARTESIAN_POINT('',(3.498043045075,2.012047344876));
#626 = CARTESIAN_POINT('',(3.568341249249,2.017617314326));
#627 = CARTESIAN_POINT('',(3.638073839288,2.023862150552));
#628 = CARTESIAN_POINT('',(3.808716214175,2.040423904065));
#629 = CARTESIAN_POINT('',(3.908968100219,2.051288271961));
#630 = CARTESIAN_POINT('',(4.008061596839,2.062524025433));
#631 = CARTESIAN_POINT('',(4.106192202958,2.07346793323));
#632 = CARTESIAN_POINT('',(4.203534634489,2.08348824627));
#633 = CARTESIAN_POINT('',(4.300252877125,2.092040595701));
#634 = CARTESIAN_POINT('',(4.39650996634,2.098713655791));
#635 = CARTESIAN_POINT('',(4.643797400207,2.110440375484));
#636 = CARTESIAN_POINT('',(4.794077018056,2.112323211278));
#637 = CARTESIAN_POINT('',(4.944240512124,2.108004601823));
#638 = CARTESIAN_POINT('',(5.095042186864,2.09752402026));
#639 = CARTESIAN_POINT('',(5.247152472049,2.082119808336));
#640 = CARTESIAN_POINT('',(5.401206388026,2.064086083501));
#641 = CARTESIAN_POINT('',(5.557792216101,2.04607927309));
#642 = CARTESIAN_POINT('',(5.786703840875,2.023862177787));
#643 = CARTESIAN_POINT('',(5.856436647886,2.017617316229));
#644 = CARTESIAN_POINT('',(5.926735286994,2.012047306859));
#645 = CARTESIAN_POINT('',(5.997477792709,2.007356885784));
#646 = CARTESIAN_POINT('',(6.068569200946,2.003714745989));
#647 = CARTESIAN_POINT('',(6.139930960075,2.001240929304));
#648 = CARTESIAN_POINT('',(6.2114925497,2.));
#649 = CARTESIAN_POINT('',(6.28318530718,2.));
#650 = ( GEOMETRIC_REPRESENTATION_CONTEXT(2) 
PARAMETRIC_REPRESENTATION_CONTEXT() REPRESENTATION_CONTEXT('2D SPACE',''
  ) );
#651 = ADVANCED_FACE('',(#652),#271,.F.);
#652 = FACE_BOUND('',#653,.F.);
#653 = EDGE_LOOP('',(#654,#655,#676,#677,#678));
#654 = ORIENTED_EDGE('',*,*,#333,.F.);
#655 = ORIENTED_EDGE('',*,*,#656,.F.);
#656 = EDGE_CURVE('',#444,#149,#657,.T.);
#657 = SEAM_CURVE('',#658,(#662,#669),.PCURVE_S1.);
#658 = LINE('',#659,#660);
#659 = CARTESIAN_POINT('',(-4.,1.592040838892E-16,-56.15));
#660 = VECTOR('',#661,1.);
#661 = DIRECTION('',(1.,0.,0.));
#662 = PCURVE('',#271,#663);
#663 = DEFINITIONAL_REPRESENTATION('',(#664),#668);
#664 = LINE('',#665,#666);
#665 = CARTESIAN_POINT('',(6.28318530718,-0.));
#666 = VECTOR('',#667,1.);
#667 = DIRECTION('',(0.,1.));
#668 = ( GEOMETRIC_REPRESENTATION_CONTEXT(2) 
PARAMETRIC_REPRESENTATION_CONTEXT() REPRESENTATION_CONTEXT('2D SPACE',''
  ) );
#669 = PCURVE('',#271,#670);
#670 = DEFINITIONAL_REPRESENTATION('',(#671),#675);
#671 = LINE('',#672,#673);
#672 = CARTESIAN_POINT('',(0.,-0.));
#673 = VECTOR('',#674,1.);
#674 = DIRECTION('',(0.,1.));
#675 = ( GEOMETRIC_REPRESENTATION_CONTEXT(2) 
PARAMETRIC_REPRESENTATION_CONTEXT() REPRESENTATION_CONTEXT('2D SPACE',''
  ) );
#676 = ORIENTED_EDGE('',*,*,#443,.T.);
#677 = ORIENTED_EDGE('',*,*,#656,.T.);
#678 = ORIENTED_EDGE('',*,*,#201,.F.);
#679 = ADVANCED_FACE('',(#680),#188,.T.);
#680 = FACE_BOUND('',#681,.T.);
#681 = EDGE_LOOP('',(#682));
#682 = ORIENTED_EDGE('',*,*,#173,.T.);
#683 = ( GEOMETRIC_REPRESENTATION_CONTEXT(3) 
GLOBAL_UNCERTAINTY_ASSIGNED_CONTEXT((#687)) GLOBAL_UNIT_ASSIGNED_CONTEXT
((#684,#685,#686)) REPRESENTATION_CONTEXT('Context #1',
  '3D Context with UNIT and UNCERTAINTY') );
#684 = ( LENGTH_UNIT() NAMED_UNIT(*) SI_UNIT(.MILLI.,.METRE.) );
#685 = ( NAMED_UNIT(*) PLANE_ANGLE_UNIT() SI_UNIT($,.RADIAN.) );
#686 = ( NAMED_UNIT(*) SI_UNIT($,.STERADIAN.) SOLID_ANGLE_UNIT() );
#687 = UNCERTAINTY_MEASURE_WITH_UNIT(LENGTH_MEASURE(1.E-07),#684,
  'distance_accuracy_value','confusion accuracy');
#688 = PRODUCT_RELATED_PRODUCT_CATEGORY('part',$,(#7));
ENDSEC;
END-ISO-10303-21;
