
CASCADE Topology V1, (c) Matra-Datavision
Locations 0
Curve2ds 21
1 0 2 1 0 
2 0 0 1 0 -0 1 3.5
1 6.2831853071795862 -0 0 1 
1 0 -0 0 1 
1 0 0 1 0 
2 0 0 1 0 -0 1 3.5
1 0 0 1 0 
2 0 0 1 0 -0 1 2
2 0 0 1 0 -0 1 2
1 6.2831853071795862 -0 0 1 
1 0 -0 0 1 
7 0 0  7 32 6  6.2831853071795862 21.650000000000002  6.2565562640375187 21.650000000000002  6.2299841584910904 21.644908960656171  6.2037663990709087 21.634766243419886  6.1781945173324271 21.619735521022399  6.1535558610043362 21.600102940741714  6.1301256198974681 21.576280288183547  6.0744542632509217 21.506699724473918  6.0441013957100145 21.455924680606859  6.0176191718371737 21.397907051742923  5.9954671820754353 21.33407720684588  5.9780341408356099 21.265858456382176  5.9655858472559817 21.194641771640388  5.9545006268485983 21.08450180104553  5.9520877157960514 21.046774453627702  5.9510344822353298 21.008802696622126  5.9513495783407278 20.970773204456759  5.9530314483503641 20.932872678798095  5.9560683337112419 20.895288085756611  5.9686373486877171 20.788633627204867  5.9815320679044151 20.720805515846386  5.998990929510704 20.655939705159909  6.020760074009134 20.595281927686777  6.0464945094764104 20.540094142554612  6.0757805089615422 20.491642674028267  6.1301246161697094 20.423720966320509  6.1535550490351749 20.399897577633361  6.1781946960153258 20.380263908852633  6.2037678137850083 20.365232672971793  6.2299863988458926 20.355090283745294  6.2565582371256498 20.349999999999998  6.2831853071795862 20.349999999999998 
 0 8 0.17267979863907532 6 0.43743757867372224 6 0.57299344519740225 6 0.82732896319460769 6 1 8
7 0 0  7 32 6  0 6  0.081935517360209514 6  0.16369550939465224 5.9983453905241149  0.24517026823476273 5.9950490824223905  0.32624640150482537 5.9902370224463102  0.40679037478609698 5.9841453762539754  0.48662325827653979 5.9770946139336729  0.68640240723816404 5.9577049809410401  0.80530935665222292 5.944524751961743  0.92262678604817072 5.9310374693377712  1.0386800457981513 5.9184499087515805  1.1537758819022221 5.9078557966518277  1.2682123837815027 5.9000266038546938  1.4407139697297866 5.8929488379141945  1.4990432945533425 5.8913769070829645  1.5573254981104729 5.890682567434439  1.6155969466743356 5.8908899166057251  1.673893770741206 5.8919944819170933  1.7322520190407309 5.8939633719878506  1.9003849877391339 5.9019364750456402  2.0104482441601048 5.9099670473828132  2.1211721298086261 5.9204385775387829  2.2328140786352635 5.9326255560018746  2.3456397631816897 5.9455600055080504  2.4599495382989067 5.958166895633549  2.6549657933913777 5.9770942643479259  2.7347997399980266 5.9841451944163202  2.8153470693310387 5.9902371859785513  2.8964269179354352 5.9950494333672779  2.9779040219341213 5.9983456375694546  3.0596632072699879 6  3.1415926535897936 6 
 0 8 0.17267979863907532 6 0.43743757867372224 6 0.57299344519740225 6 0.82732896319460769 6 1 8
7 0 0  8 30 5  0 20.349999999999998  0.02330041274931053 20.349999999999998  0.046558122301889215 20.353818279507877  0.06958724832610895 20.361430237616517  0.092204848977918127 20.372749117778863  0.11423028597019398 20.387626696582856  0.13548700645196879 20.405852722397828  0.15580674169752878 20.427153103892362  0.20335871376645923 20.486585695827696  0.2293692978319008 20.527981275423038  0.25277481987022621 20.574586508262207  0.2733098054196626 20.625610816423336  0.29074145077123908 20.680264384167348  0.30487691907935022 20.737762543686017  0.31557284229979077 20.797330285440761  0.33405915990814483 20.954196054065019  0.33659032830197816 21.053235637311293  0.33009628584536033 21.152475188324594  0.31458597503272789 21.249087745128122  0.29045488332100322 21.340148498095708  0.25846476259135598 21.422545204665667  0.21959636334370275 21.49311975992261  0.155806819892646 21.57284679837587  0.13548703152646405 21.594147279674623  0.11423017977450449 21.612373432983901  0.092204595048496374 21.627251077159659  0.069586888303736022 21.638569934982812  0.046557745793841025 21.646181807482183  0.02330014618075445 21.650000000000002  0 21.650000000000002 
 0 9 0.17248824951505648 7 0.42654292732891858 7 0.82713186132747585 7 1 9
7 0 0  8 30 5  3.1415926535897936 6  3.2132862312799806 6  3.2848481649758305 5.9987590428930861  3.3562098872595114 5.9962851979605372  3.4273009884595891 5.9926430524343495  3.4980430450750988 5.9879526551241851  3.5683412492485025 5.9823826856739002  3.6380738392875411 5.9761378494476967  3.8087162141750825 5.9595760959350912  3.9089681002186327 5.9487117280394211  4.0080615968394131 5.9374759745666923  4.1061922029576117 5.9265320667703314  4.203534634489162 5.9165117537302931  4.3002528771247581 5.9079594042985164  4.3965099663395346 5.9012863442089678  4.6437974002085811 5.8895596245156332  4.7940770180546641 5.8876767887225023  4.9442405121210644 5.891995398176058  5.0950421868721314 5.9024759797405633  5.2471524720423997 5.9178801916635626  5.4012063880272541 5.9359139164990049  5.5577922161017277 5.9539207269099608  5.7867038408751696 5.9761378222133228  5.8564366478862704 5.9823826837708562  5.9267352869936669 5.9879526931407216  5.9974777927088248 5.9926431142156353  6.0685692009464098 5.9962852540111724  6.1399309600750751 5.998759070696015  6.2114925497003428 6  6.2831853071795862 6 
 0 9 0.17248824951505648 7 0.42654292732891858 7 0.82713186132747585 7 1 9
1 0 24 1 0 
2 0 0 1 0 -0 1 2
7 0 0  8 65 10  3.1415926535897931 21.650000000000002  3.1648930663390966 21.650000000000002  3.1881507758916823 21.646181720492116  3.2111799019159046 21.638569762383487  3.2337975025677133 21.627250882221141  3.2558229395599869 21.612373303417133  3.2770796600417609 21.594147277602161  3.2973993952873188 21.572846896107638  3.3461118323530425 21.511963902861719  3.3730883481741567 21.468618441573611  3.397227954979877 21.419663662566904  3.4182347838130709 21.365992129294394  3.4358481691588922 21.308495175421985  3.4498558933286678 21.248054285196748  3.4601085506532163 21.185536281995418  3.469808118509675 21.08916380772493  3.4720870172101916 21.056206290482159  3.4733485159487776 21.023042105499215  3.4735859304813492 20.989787950539441  3.4727976811750363 20.956560507334761  3.4709872910787949 20.923476530537723  3.4681633839940016 20.890652936673568  3.457165495889583 20.797330285440768  3.4464695726691255 20.737762543685978  3.4323341043610385 20.680264384167355  3.4149024590094768 20.625610816423382  3.3943674734600209 20.574586508262225  3.3709619514216711 20.527981275422999  3.3449513673562485 20.486585695827689  3.2974002735491266 20.427154201583427  3.2770805199505584 20.405853424805137  3.2558231323716087 20.387626534645399  3.2337967058692256 20.372748290912224  3.2111781775865436 20.361429277011865  3.1881486023535377 20.353817712808961  3.1648913398869971 20.349999999999998  3.1182922408404741 20.349999999999998  3.0950345312878862 20.353818279507887  3.0720054052636976 20.361430237616503  3.0493878046119014 20.372749117778834  3.0273623676195967 20.38762669658286  3.0061056471377974 20.405852722397849  2.9857859118922709 20.427153103892351  2.9382339398233479 20.486585695827674  2.9122233557579 20.52798127542302  2.888817833719564 20.574586508262204  2.8682828481701237 20.625610816423343  2.8508512028185509 20.680264384167362  2.8367157345104443 20.737762543686021  2.8260198112900041 20.797330285440744  2.8075334936817433 20.954196054064212  2.8050023252873739 21.053235637313154  2.8114963677455655 21.152475188323887  2.8270066785554322 21.249087745126211  2.851137770269935 21.340148498097903  2.8831278909982414 21.422545204665127  2.9219962902459717 21.493119759922461  2.9857858336971512 21.57284679837587  3.0061056220633668 21.594147279674662  3.0273624738153013 21.612373432983915  3.0493880585412771 21.627251077159642  3.072005765286042 21.638569934982801  3.0950349077959562 21.646181807482197  3.1182925074090289 21.650000000000002  3.1415926535897931 21.650000000000002 
 0 9 0.08629097716748578 7 0.21859485829275005 7 0.28633438703499969 7 0.4134300898871911 7 0.49971668862018892 7 0.58600968126222441 7 0.7131089967511407 7 0.91351695515335951 7 1 9
7 0 0  8 65 10  0 2  0.071693577690163962 2  0.14325551138604573 2.0012409571069139  0.21461723366972754 2.0037148020394628  0.28570833486979486 2.007356947565651  0.35645039148530699 2.0120473448758163  0.42674859565871631 2.0176173143261003  0.49648118569773719 2.0238621505523033  0.67128794103914657 2.040828079420856  0.77558261929879768 2.0521801907934423  0.87863275002460139 2.0639047996782303  0.98065341592315547 2.0752563109553237  1.0818409843372654 2.0855228832858361  1.1823850073719635 2.0941015015474473  1.2824734317562734 2.1005585290823561  1.4334123194609956 2.1067515742802914  1.4844609633474566 2.1082301102092278  1.535469671776557 2.109057055197364  1.5864612223924097 2.1092137579799184  1.6374582556994124 2.1086958714025128  1.6884833328160869 2.1075132955652185  1.7395589932289164 2.1056901209665999  1.8866753408400492 2.0987136557910313  1.98293243005491 2.0920405957014756  2.079650672690406 2.0834882462697086  2.1769931042218809 2.073467933229677  2.2751237103401625 2.0625240254333099  2.3742172069610485 2.0512882719605692  2.4744690930045139 2.0404239040649101  2.6451083162103486 2.0238624564398386  2.7148412533464148 2.0176175381007742  2.7851418208311758 2.0120473108572838  2.855886993633193 2.0073566903270899  2.9269808319349244 2.0037144900569088  2.9983438182681188 2.001240771822907  3.0699043880599364 2  3.2132862312800059 2  3.2848481649758918 2.0012409571069179  3.3562098872594675 2.0037148020394602  3.4273009884594998 2.0073569475656443  3.4980430450751081 2.0120473448758167  3.5683412492485984 2.0176173143261074  3.6380738392875207 2.023862150552302  3.8087162141750324 2.0404239040649053  3.9089681002186238 2.0512882719605736  4.0080615968394042 2.0625240254333099  4.1061922029576037 2.0734679332296726  4.2035346344891842 2.0834882462697082  4.3002528771247883 2.0920405957014814  4.3965099663395026 2.0987136557910304  4.6437974002073075 2.1104403754843069  4.7940770180564787 2.1123232112777601  4.9442405121235113 2.1080046018232919  5.0950421868640881 2.0975240202603618  5.2471524720494003 2.0821198083357819  5.401206388025523 2.0640860835011372  5.5577922161013005 2.0460792730900805  5.7867038408751865 2.0238621777866772  5.8564366478864383 2.0176173162291335  5.9267352869936998 2.0120473068592739  5.9974777927087111 2.0073568857843704  6.0685692009463539 2.0037147459888316  6.1399309600751364 2.0012409293039823  6.2114925497003126 2  6.2831853071795862 2 
 0 9 0.08629097716748578 7 0.21859485829275005 7 0.28633438703499969 7 0.4134300898871911 7 0.49971668862018892 7 0.58600968126222441 7 0.7131089967511407 7 0.91351695515335951 7 1 9
1 6.2831853071795862 -0 0 1 
1 0 -0 0 1 
Curves 10
2 0 0 -77.799999999999997 0 0 1 1 0 -0 -0 1 0 3.5
1 3.5 -8.5725275940314722e-16 -79.799999999999997 0 0 1 
2 0 0 -79.799999999999997 0 0 1 1 0 -0 -0 1 0 3.5
2 0 0 -77.799999999999997 0 0 1 1 0 -0 -0 1 0 2
1 2 -4.8985871965894128e-16 -77.799999999999997 0 0 1 
7 0 0  7 32 6  2 -1.1102230246251565e-16 -56.149999999999991  2 -0.053258086284136294 -56.149999999999991  1.9983453905241149 -0.10640221066728321 -56.155091039343823  1.9950490824223903 -0.15877635689983971 -56.165233756580115  1.9902370224463104 -0.20973579055255501 -56.180264478977598  1.9841453762539747 -0.25866550124708704 -56.199897059258284  1.9770946139336729 -0.30500613500802121 -56.223719711816443  1.9577049809410396 -0.41464755936888315 -56.293300275526072  1.944524751961743 -0.47396435506358792 -56.344075319393141  1.931037469337771 -0.52523875201542569 -56.402092948257071  1.9184499087515794 -0.56773610785080331 -56.465922793154135  1.907855796651829 -0.60095711546263308 -56.534141543617807  1.9000266038546936 -0.62459099260587803 -56.605358228359613  1.892948837914195 -0.64560131566890033 -56.715498198954471  1.8913769070829645 -0.65016398678104181 -56.753225546372278  1.8906825674344387 -0.65215283956601577 -56.791197303377871  1.8908899166057256 -0.65155773578921872 -56.829226795543249  1.8919944819170915 -0.64838039833865313 -56.867127321201906  1.8939633719878501 -0.64263452383808239 -56.9047119142434  1.9019364750456413 -0.61879442783271177 -57.011366372795123  1.9099670473828125 -0.59428607213246798 -57.079194484153604  1.9204385775387818 -0.56097345896968809 -57.144060294840088  1.9326255560018752 -0.51915304142797614 -57.204718072313234  1.9455600055080511 -0.46928759838137835 -57.259905857445396  1.9581668956335496 -0.41203559735602663 -57.308357325971734  1.9770942643479252 -0.30500811179011772 -57.376279033679495  1.9841451944163206 -0.2586671210588149 -57.400102422366636  1.9902371859785506 -0.20973544751846843 -57.419736091147364  1.9950494333672768 -0.15877354061961815 -57.434767327028212  1.9983456375694544 -0.10639773408266642 -57.444909716254699  2 -0.053254140107874139 -57.449999999999996  2 0 -57.449999999999996 
 0 8 0.17267979863907532 6 0.43743757867372224 6 0.57299344519740225 6 0.82732896319460769 6 1 8
7 0 0  8 30 5  2 2.4885696543025171e-16 -57.449999999999996  2 0.046600825498621296 -57.449999999999996  1.9987590428930861 0.093116179571494109 -57.44618172049212  1.9962851979605372 0.13913605206262888 -57.438569762383473  1.9926430524343499 0.1842560737261979 -57.427250882221145  1.9879526551241844 0.22808443206300644 -57.412373303417141  1.9823826856739 0.27025065968732259 -57.394147277602151  1.976137849447696 0.31041629522406489 -57.372846896107639  1.9595760959350896 0.40406707477856196 -57.313414304172326  1.9487117280394222 0.45497459812505497 -57.272018724576952  1.9374759745666903 0.50045350028550584 -57.225413491737797  1.9265320667703316 0.54006325019882306 -57.174389183576665  1.916511753730294 0.57346568890572824 -57.119735615832639  1.9079594042985173 0.60041316105753695 -57.062237456313973  1.9012863442089689 0.62073836126114068 -57.002669714559246  1.889559624515633 0.65580201480867784 -56.845803945934982  1.8876767887225012 0.66051052474741545 -56.746764362688587  1.8919953981760598 0.6482534906661479 -56.647524811675758  1.9024759797405606 0.61906981501843783 -56.550912254871363  1.9178801916635637 0.57331629701620812 -56.459851501904666  1.9359139164990042 0.51180444603114883 -56.377454795334209  1.9539207269099612 0.43604615944906205 -56.306880240077383  1.9761378222133206 0.31041644922469491 -56.22715320162412  1.9823826837708556 0.27025071015849322 -56.205852720325367  1.9879526931407232 0.22808422318306495 -56.187626567016089  1.9926431142156362 0.18425556940705864 -56.172748922840327  1.9962852540111733 0.1391353326840519 -56.161430065017186  1.9987590706960152 0.093115425056425408 -56.153818192517811  2 0.04660029236150897 -56.149999999999984  2 7.9602041944577992e-17 -56.149999999999984 
 0 9 0.17248824951505648 7 0.42654292732891858 7 0.82713186132747585 7 1 9
2 0 0 -53.799999999999997 0 0 1 1 0 -0 -0 1 0 2
7 0 0  8 65 10  -2 2.2204460492503131e-16 -56.149999999999984  -2 -0.046600825498606363 -56.149999999999984  -1.9987590428930873 -0.093116179571498287 -56.153818279507881  -1.9962851979605374 -0.13913605206263543 -56.161430237616507  -1.9926430524343499 -0.18425607372619834 -56.172749117778856  -1.9879526551241842 -0.2280844320630061 -56.187626696582868  -1.9823826856739 -0.27025065968732365 -56.205852722397843  -1.9761378494476973 -0.31041629522405867 -56.227153103892348  -1.959171920579144 -0.40635254153980638 -56.288036097138267  -1.9478198092065577 -0.45913515613995093 -56.331381558426443  -1.93609520032177 -0.50601085315845273 -56.380336337433015  -1.9247436890446763 -0.54648742993310551 -56.434007870705607  -1.9144771167141641 -0.58019398570527203 -56.491504824578094  -1.9058984984525524 -0.60686558474842289 -56.551945714803189  -1.8994414709176441 -0.62632795765185145 -56.614463718004586  -1.8932484257197089 -0.64471199033199278 -56.710836192275082  -1.8917698897907722 -0.64902331900300614 -56.743793709517831  -1.890942944802636 -0.65140701977165094 -56.776957894500789  -1.8907862420200814 -0.65185528767761747 -56.810212049460567  -1.8913041285974874 -0.65036623424525608 -56.843439492665247  -1.8924867044347817 -0.64694392971350911 -56.876523469462285  -1.8943098790334001 -0.64159844526584409 -56.909347063326457  -1.9012863442089689 -0.62073836126114057 -57.002669714559246  -1.9079594042985246 -0.60041316105750575 -57.062237456314008  -1.9165117537302911 -0.57346568890573801 -57.119735615832653  -1.9265320667703218 -0.54006325019886137 -57.174389183576622  -1.9374759745666901 -0.50045350028550861 -57.225413491737768  -1.9487117280394315 -0.45497459812501445 -57.272018724576995  -1.9595760959350903 -0.4040670747785563 -57.313414304172305  -1.9761375435601611 -0.31041802490842929 -57.372845798416563  -1.9823824618992258 -0.27025236874160924 -57.394146575194867  -1.9879526891427162 -0.22808482509609407 -57.412373465354584  -1.9926433096729099 -0.18425449406907499 -57.427251709087763  -1.996285509943091 -0.13913261316826961 -57.438570722988125  -1.9987592281770934 -0.093111835588942871 -57.446182287191029  -2 -0.046597372594406938 -57.449999999999996  -2 0.046600825498637637 -57.449999999999996  -1.9987590428930821 0.09311617957152718 -57.446181720492113  -1.9962851979605396 0.13913605206260407 -57.438569762383501  -1.9926430524343557 0.18425607372614908 -57.427250882221159  -1.9879526551241831 0.22808443206301166 -57.412373303417127  -1.9823826856738924 0.27025065968737372 -57.394147277602144  -1.976137849447698 0.31041629522405328 -57.372846896107667  -1.9595760959350945 0.40406707477853426 -57.313414304172333  -1.9487117280394264 0.45497459812503466 -57.272018724576981  -1.9374759745666899 0.50045350028551117 -57.225413491737797  -1.9265320667703272 0.54006325019884105 -57.174389183576658  -1.9165117537302911 0.57346568890573579 -57.119735615832639  -1.9079594042985182 0.60041316105752884 -57.062237456313959  -1.9012863442089694 0.62073836126113613 -57.002669714559261  -1.8895596245156929 0.65580201480849731 -56.845803945935792  -1.8876767887222399 0.66051052474827165 -56.746764362686967  -1.8919953981767084 0.64825349066392168 -56.647524811675716  -1.902475979739638 0.61906981502166425 -56.550912254874305  -1.9178801916642183 0.5733162970139396 -56.45985150190176  -1.935913916498863 0.51180444603154052 -56.377454795334963  -1.9539207269099197 0.43604615944929614 -56.306880240077533  -1.9761378222133221 0.31041644922468603 -56.22715320162412  -1.9823826837708665 0.27025071015842123 -56.205852720325325  -1.9879526931407261 0.22808422318303936 -56.187626567016103  -1.9926431142156296 0.18425556940709387 -56.172748922840377  -1.9962852540111689 0.13913533268408185 -56.161430065017207  -1.9987590706960179 0.093115425056420939 -56.153818192517789  -2 0.046600292361528232 -56.149999999999984  -2 2.2204460492503131e-16 -56.149999999999984 
 0 9 0.08629097716748578 7 0.21859485829275005 7 0.28633438703499969 7 0.4134300898871911 7 0.49971668862018892 7 0.58600968126222441 7 0.7131089967511407 7 0.91351695515335951 7 1 9
1 -4 1.5920408388915601e-16 -56.149999999999999 1 0 0 
Polygon3D 0
PolygonOnTriangulations 0
Surfaces 7
2 0 0 -79.799999999999997 0 0 1 1 0 -0 -0 1 0 3.5
1 0 0 -77.799999999999997 0 0 1 1 0 -0 -0 1 0 
1 0 0 -79.799999999999997 0 0 1 1 0 -0 -0 1 0 
2 0 0 -77.799999999999997 0 0 1 1 0 -0 -0 1 0 2
1 0 0 -77.799999999999997 0 0 1 1 0 -0 -0 1 0 
2 -4 0 -56.799999999999997 1 0 0 -0 0 1 0 -1 0 0.65000000000000002
1 0 0 -53.799999999999997 0 0 1 1 0 -0 -0 1 0 
Triangulations 0

TShapes 35
Ve
1e-07
3.5 -8.57252759403147e-16 -77.8
0 0

0101101
*
Ed
 1e-07 1 1 0
1  1 0 0 6.28318530717959
2  1 1 0 0 6.28318530717959
2  2 2 0 0 6.28318530717959
0

0101000
+35 0 -35 0 *
Ve
1e-07
3.5 -8.57252759403147e-16 -79.8
0 0

0101101
*
Ed
 1e-07 1 1 0
1  2 0 0 2
3  3 4CN 1 0 0 2
0

0101000
-35 0 +33 0 *
Ed
 1e-07 1 1 0
1  3 0 0 6.28318530717959
2  5 1 0 0 6.28318530717959
2  6 3 0 0 6.28318530717959
0

0101000
+33 0 -33 0 *
Wi

0101100
-34 0 +32 0 +31 0 -32 0 *
Fa
0  1e-07 1 0

0101000
+30 0 *
Wi

0101100
+34 0 *
Ve
1e-07
2 -4.89858719658941e-16 -77.8
0 0

0101101
*
Ed
 1e-07 1 1 0
1  4 0 0 6.28318530717959
2  7 4 0 0 6.28318530717959
2  8 5 0 0 6.28318530717959
2  9 2 0 0 6.28318530717959
0

0101000
+27 0 -27 0 *
Wi

0101100
-26 0 *
Fa
0  1e-07 2 0

0101000
+28 0 +25 0 *
Wi

0101100
-31 0 *
Fa
0  1e-07 3 0

0101000
-23 0 *
Ve
1.00000014212965e-07
2 -1.65327317884893e-16 -56.15
0 0

0101101
*
Ve
1e-07
2 -4.89858719658941e-16 -53.8
0 0

0101101
*
Ed
 1e-07 1 1 0
1  5 0 21.65 24
3  10 11CN 4 0 21.65 24
0

0101000
+21 0 -20 0 *
Ve
1.00000447642533e-07
2 -4.89858719658941e-16 -57.4500000000004
0 0

0101101
*
Ed
 1e-07 1 1 0
1  6 0 0 1
2  12 4 0 0 1
2  13 6 0 0 1
0

0101000
+21 0 -18 0 *
Ed
 1e-07 1 1 0
1  5 0 0 20.3499999999996
3  10 11CN 4 0 0 20.3499999999996
0

0101000
+27 0 -18 0 *
Ed
 1e-07 1 1 0
1  7 0 0 1
2  14 4 0 0 1
2  15 6 0 0 1
0

0101000
+18 0 -21 0 *
Ed
 1e-07 1 1 0
1  8 0 0 6.28318530717959
2  16 4 0 0 6.28318530717959
2  17 7 0 0 6.28318530717959
0

0101000
+20 0 -20 0 *
Wi

0101100
+19 0 -17 0 +16 0 +26 0 -16 0 -15 0 -19 0 -14 0 *
Ve
1.00000014210994e-07
-2 1.59204083889156e-16 -56.15
0 0

0101101
*
Ed
 1e-07 1 1 0
1  9 0 0 1
2  18 4 0 0 1
2  19 6 0 0 1
0

0101100
+12 0 -12 0 *
Wi

0101100
+11 0 *
Fa
0  1e-07 4 0

0101000
+13 0 +10 0 *
Ed
 1e-07 1 1 0
1  10 0 2 6
3  20 21CN 6 0 2 6
0

0101000
+12 0 -21 0 *
Wi

0101100
-17 0 -15 0 +8 0 +11 0 -8 0 *
Fa
0  1e-07 6 0

0101000
+7 0 *
Wi

0101100
+14 0 *
Fa
0  1e-07 7 0

0101000
+5 0 *
Sh

0101100
+29 0 +24 0 -22 0 +9 0 -6 0 +4 0 *
So

0100000
+3 0 *
Co

1100000
+2 0 *

+1 0 