
CASCADE Topology V1, (c) Matra-Datavision
Locations 0
Curve2ds 110
1 6.7999999999999972 0 0 1 
1 0 0 1 0 
1 0 0 1 0 
1 0 0 1 0 
2 68 44 1 0 -0 1 51.399999999999999
1 0 1 1 0 
1 0 0 1 0 
1 0 88 1 0 
1 6 0 0 1 
1 0 0 1 0 
1 0 0 1 0 
1 0 0 1 0 
1 6.7999999999999972 0 0 1 
1 0 0 1 0 
1 0 -105 1 0 
1 0 12 1 0 
1 6.7999999999999972 0 0 -1 
1 12 0 0 1 
1 0 0 0 1 
1 0 105 1 0 
1 6.7999999999999972 0 0 1 
1 0 105 1 0 
1 0 -105 1 0 
1 0 0 1 0 
1 6.7999999999999972 0 0 -1 
1 0 0 0 1 
2 6 99 1 0 -0 1 2.1000000000000001
1 0 7.7999999999999972 1 0 
1 6.2831853071795862 -0 0 1 
1 0 -0 0 1 
2 6 99 1 0 -0 1 2.1000000000000001
1 0 1 1 0 
1 0 0 0 -1 
1 0 0 0 1 
8 0 6
1 0 -82 1 0 
8 0 6
1 0 164 1 0 
8 -50 -32
1 6 -32 0 1 
8 -50 -32
1 164 -32 0 -1 
8 0 6
1 0 -64 1 0 
8 0 6
1 0 164 1 0 
8 0 6
1 0 -18 1 0 
8 0 6
1 0 164 1 0 
8 -18 0
1 6 0 0 1 
8 -18 0
1 164 0 0 -1 
8 2.2010101267766515 9.79898987322332
1 6.7999999999999972 -2.2010101267766657 0 1 
8 2.2010101267766515 9.79898987322332
1 2.20101012677668 18 1 0 
1 0 -18 1 0 
1 0 0 1 0 
2 68 44 1 0 -0 1 51.399999999999999
1 0 19 1 0 
1 0 -18 1 0 
1 0 88 1 0 
1 6 0 0 1 
1 0 18 1 0 
1 6.7999999999999972 0 0 -1 
1 12 0 0 1 
1 0 0 0 -1 
1 12 0 0 1 
1 0 0 1 0 
1 0 88 1 0 
1 6 0 0 1 
1 0 0 1 0 
8 2.2010101267766515 9.79898987322332
1 6.7999999999999972 -2.2010101267766657 0 1 
8 2.2010101267766515 9.79898987322332
1 2.20101012677668 64 1 0 
1 0 0 1 0 
1 0 0 1 0 
2 68 44 1 0 -0 1 51.399999999999999
1 0 1 1 0 
8 -6.0000000701165845e-07 20.000000599999993
1 41.430092209418561 1 0 -1 
8 -6.0000000701165845e-07 20.000000599999993
1 2.1140503586519843 0 0 1 
2 68 44 1 0 -0 1 51.399999999999999
1 0 19 1 0 
8 -6.0000000701165845e-07 20.000000599999993
1 41.430092209418561 1 0 -1 
8 -6.0000000701165845e-07 20.000000599999993
1 4.1691349485276019 0 0 1 
1 0 -18 1 0 
1 0 0 1 0 
8 -50 -32
1 6.7999999999999972 32 0 1 
8 -50 -32
1 4.4020202535533457 32 0 -1 
1 0 -18 1 0 
1 0 88 1 0 
8 -18 0
1 6 0 0 1 
8 -18 0
1 92.402020253553346 0 0 -1 
1 6 0 0 1 
1 0 18 1 0 
8 2.2010101267766515 9.79898987322332
1 6.7999999999999972 -2.2010101267766657 0 1 
8 2.2010101267766515 9.79898987322332
1 2.20101012677668 82 1 0 
1 0 -105 1 0 
1 0 12 1 0 
1 0 0 0 1 
1 0 105 1 0 
1 6.7999999999999972 0 0 1 
1 0 105 1 0 
1 0 -105 1 0 
1 0 0 1 0 
8 -18 0
1 6 0 0 1 
8 -18 0
1 92.402020253553346 0 0 -1 
8 -5.999999999062311e-07 20.0000006
1 41.430092209418561 1 0 -1 
8 -5.999999999062311e-07 20.0000006
1 2.1140503586519843 0 0 1 
8 -5.999999999062311e-07 20.0000006
1 41.430092209418561 1 0 -1 
8 -5.999999999062311e-07 20.0000006
1 4.1691349485276019 0 0 1 
8 -18 0
1 6.7999999999999972 0 0 1 
8 -18 0
1 4.4020202535533457 0 0 -1 
1 6.7999999999999972 0 0 -1 
1 0 0 0 1 
2 6 99 1 0 -0 1 2.1000000000000001
1 0 7.7999999999999972 1 0 
1 6.2831853071795862 -0 0 1 
1 0 -0 0 1 
2 6 99 1 0 -0 1 2.1000000000000001
1 0 1 1 0 
Curves 66
8 0 176
1 -88 33 -68 1 0 0 
8 0 6.7999999999999972
1 -88 33 -61.200000000000003 0 0 -1 
1 -88 33 -61.200000000000003 1 0 -0 
1 -83.597979746446654 33 -68 0 0 1 
2 -39.597979746446654 33 -3.5527136788005009e-15 0 1 0 0 -0 1 1 0 -0 51.399999999999999
1 4.4020202535533457 33 -68 0 0 1 
1 -88 33 -62 1 0 -0 
1 76 33 -68 0 0 1 
1 76 33 -61.200000000000003 1 0 -0 
8 0 6.7999999999999972
1 88 33 -68 0 0 1 
8 0 105
1 88 138 -68 0 -1 0 
1 88 138 -68 0 0 1 
1 88 33 -61.200000000000003 -0 1 0 
1 76 138 -68 1 0 -0 
1 76 138 -61.200000000000003 1 0 -0 
1 76 138 -68 0 0 1 
1 76 33 -61.200000000000003 -0 1 0 
2 82 132 -61.200000000000003 0 0 1 1 0 -0 -0 1 0 2.1000000000000001
1 84.099999999999994 132 -69 0 0 1 
2 82 132 -68 0 0 1 1 0 -0 -0 1 0 2.1000000000000001
1 76 33 -68 -0 1 0 
1 76 115 -68 0 0 1 
1 76 65 -62 0 -1 0 
1 76 97 -68 0 0 1 
1 76 51 -68 0 0 1 
1 76 33 -62 0 -1 0 
8 0 6.7999999999999972
1 -76 51 -68 0 0 1 
1 -85.79898987322332 51 -61.200000000000003 1 0 -0 
1 -83.597979746446654 51 -68 0 0 1 
2 -39.597979746446654 51 -3.5527136788005009e-15 0 1 0 0 -0 1 1 0 -0 51.399999999999999
1 4.4020202535533457 51 -68 0 0 1 
1 -88 51 -62 1 0 -0 
8 0 152
1 -76 51 -68 1 0 0 
1 -76 33 -61.200000000000003 -0 1 0 
1 -76 33 -68 -0 1 0 
8 0 6.7999999999999972
1 -76 97 -68 0 0 1 
1 4.4020202535533457 97 -68 0 0 1 
1 -88 97 -62 1 0 -0 
8 0 152
1 76 97 -68 -1 0 0 
1 -85.79898987322332 97 -61.200000000000003 1 0 -0 
1 -83.597979746446654 97 -68 0 0 1 
2 -39.597979746446654 97 -3.5527136788005009e-15 0 1 0 0 -0 1 1 0 -0 51.399999999999999
1 4.4020202535533457 96 -26.569907790581439 0 1 0 
2 -39.597979746446654 115 -3.5527136788005009e-15 0 1 0 0 -0 1 1 0 -0 51.399999999999999
1 -83.597979746446654 96 -26.569907790581439 0 1 0 
1 -83.597979746446654 115 -68 0 0 1 
1 -83.597979746446654 65 -61.200000000000003 0 -1 0 
1 4.4020202535533457 115 -68 0 0 1 
1 4.4020202535533457 97 -62 0 -1 0 
1 -88 115 -62 1 0 -0 
8 0 152
1 -76 115 -68 1 0 0 
8 0 6.7999999999999972
1 -76 115 -61.200000000000003 0 0 -1 
1 -85.79898987322332 115 -61.200000000000003 1 0 -0 
1 -76 138 -68 0 0 1 
1 -88 138 -68 1 0 -0 
1 -88 138 -61.200000000000003 1 0 -0 
1 -88 138 -68 0 0 1 
1 4.4020202535533457 33 -62 0 -1 0 
1 4.4020202535533457 32 -26.569907790581439 0 1 0 
1 -83.597979746446654 32 -26.569907790581439 0 1 0 
1 -83.597979746446654 33 -61.200000000000003 0 -1 0 
1 -88 33 -61.200000000000003 -0 1 0 
2 -82 132 -61.200000000000003 0 0 1 1 0 -0 -0 1 0 2.1000000000000001
1 -79.900000000000006 132 -69 0 0 1 
2 -82 132 -68 0 0 1 1 0 -0 -0 1 0 2.1000000000000001
8 0 105
1 -88 33 -68 0 1 0 
Polygon3D 0
PolygonOnTriangulations 0
Surfaces 37
1 -83.597979746446654 33 -68 -0 1 0 0 0 1 1 0 -0 
1 -88 33 -68 -0 1 0 0 0 1 1 0 -0 
1 -88 33 -61.200000000000003 0 0 1 1 0 -0 -0 1 0 
1 -83.597979746446654 33 -68 1 0 -0 0 0 1 0 -1 0 
1 -83.597979746446654 33 -68 -0 1 0 0 0 1 1 0 -0 
2 -39.597979746446654 32 -3.5527136788005009e-15 0 1 0 0 -0 1 1 0 -0 51.399999999999999
1 4.4020202535533457 33 -68 1 0 -0 0 0 1 0 -1 0 
1 -88 33 -68 -0 1 0 0 0 1 1 0 -0 
1 -88 33 -62 0 0 1 1 0 -0 -0 1 0 
1 76 33 -68 1 0 -0 0 0 1 0 -1 0 
1 76 33 -68 -0 1 0 0 0 1 1 0 -0 
1 76 33 -61.200000000000003 0 0 1 1 0 -0 -0 1 0 
1 88 33 -68 1 0 -0 0 0 1 0 -1 0 
1 88 33 -68 1 0 -0 0 0 1 0 -1 0 
1 76 138 -68 -0 1 0 0 0 1 1 0 -0 
1 76 33 -68 0 0 1 1 0 -0 -0 1 0 
2 82 132 -69 0 0 1 1 0 -0 -0 1 0 2.1000000000000001
1 -88 115 -68 -0 1 0 0 0 1 1 0 -0 
1 -88 97 -62 0 0 1 1 0 -0 -0 1 0 
1 -88 97 -68 -0 1 0 0 0 1 1 0 -0 
1 -88 51 -68 -0 1 0 0 0 1 1 0 -0 
1 -83.597979746446654 51 -68 -0 1 0 0 0 1 1 0 -0 
1 -83.597979746446654 51 -68 -0 1 0 0 0 1 1 0 -0 
1 -76 33 -68 1 0 -0 0 0 1 0 -1 0 
1 -88 33 -68 0 0 1 1 0 -0 -0 1 0 
1 -83.597979746446654 97 -68 -0 1 0 0 0 1 1 0 -0 
1 4.4020202535533457 97 -68 1 0 -0 0 0 1 0 -1 0 
1 -83.597979746446654 97 -68 -0 1 0 0 0 1 1 0 -0 
1 -83.597979746446654 97 -68 1 0 -0 0 0 1 0 -1 0 
2 -39.597979746446654 96 -3.5527136788005009e-15 0 1 0 0 -0 1 1 0 -0 51.399999999999999
1 -83.597979746446654 115 -68 -0 1 0 0 0 1 1 0 -0 
1 -83.597979746446654 115 -68 -0 1 0 0 0 1 1 0 -0 
1 -88 138 -68 -0 1 0 0 0 1 1 0 -0 
1 -88 33 -68 1 0 -0 0 0 1 0 -1 0 
2 -82 132 -69 0 0 1 1 0 -0 -0 1 0 2.1000000000000001
1 -88 33 -68 1 0 -0 0 0 1 0 -1 0 
1 -83.597979746446654 33 -68 0 0 1 1 0 -0 -0 1 0 
Triangulations 0

TShapes 171
Ve
1e-07
-88 33 -68
0 0

0101101
*
Ve
1e-07
88 33 -68
0 0

0101101
*
Ed
 1e-07 1 1 0
1  1 0 0 176
0

0101000
+171 0 -170 0 *
Ve
1e-07
-88 33 -61.2
0 0

0101101
*
Ed
 1e-07 1 1 0
1  2 0 0 6.8
0

0101000
+168 0 -171 0 *
Ve
1.5e-07
-83.5979797464467 33 -61.2
0 0

0101101
*
Ed
 1e-07 1 1 0
1  3 0 0 4.40202025355335
2  1 2 0 0 4.40202025355335
2  2 3 0 0 4.40202025355335
0

0101000
+168 0 -166 0 *
Ve
1.00000041583447e-07
-83.5979797464467 33 -26.5699077905815
0 0

0101101
*
Ed
 1e-07 1 1 0
1  4 0 6.8 41.4300922094185
2  3 4 0 6.8 41.4300922094185
2  4 5 0 6.8 41.4300922094185
0

0101000
+166 0 -164 0 *
Ve
1.00000003552714e-07
4.40202025355335 33 -26.5699077905814
0 0

0101101
*
Ed
 1e-07 1 1 0
1  5 0 2.11405035865198 4.1691349485276
2  5 5 0 2.11405035865198 4.1691349485276
2  6 6 0 2.11405035865198 4.1691349485276
0

0101000
+162 0 -164 0 *
Ve
1.5e-07
4.40202025355335 33 -62
0 0

0101101
*
Ed
 1e-07 1 1 0
1  6 0 6 41.4300922094186
2  7 7 0 6 41.4300922094186
2  8 5 0 6 41.4300922094186
0

0101000
+160 0 -162 0 *
Ve
1.5e-07
76 33 -62
0 0

0101101
*
Ed
 1e-07 1 1 0
1  7 0 92.4020202535533 164
2  9 8 0 92.4020202535533 164
2  10 9 0 92.4020202535533 164
0

0101000
+160 0 -158 0 *
Ve
1e-07
76 33 -61.2
0 0

0101101
*
Ed
 1e-07 1 1 0
1  8 0 6 6.8
2  11 10 0 6 6.8
2  12 11 0 6 6.8
0

0101000
+158 0 -156 0 *
Ve
1e-07
88 33 -61.2
0 0

0101101
*
Ed
 1e-07 1 1 0
1  9 0 0 12
2  13 11 0 0 12
2  14 12 0 0 12
0

0101000
-154 0 +156 0 *
Ed
 1e-07 1 1 0
1  10 0 0 6.8
0

0101000
+170 0 -154 0 *
Wi

0101100
-169 0 -167 0 +165 0 +163 0 -161 0 -159 0 +157 0 +155 0 +153 0 -152 0 
*
Fa
0  0 1 0

0101000
+151 0 *
Ve
1e-07
88 138 -68
0 0

0101101
*
Ed
 1e-07 1 1 0
1  11 0 0 105
0

0101000
+149 0 -170 0 *
Ve
1e-07
88 138 -61.2
0 0

0101101
*
Ed
 1e-07 1 1 0
1  12 0 0 6.8
2  15 14 0 0 6.8
2  16 15 0 0 6.8
0

0101000
-147 0 +149 0 *
Ed
 1e-07 1 1 0
1  13 0 0 105
2  17 14 0 0 105
2  18 12 0 0 105
0

0101000
-147 0 +154 0 *
Wi

0101100
-152 0 -148 0 +146 0 -145 0 *
Fa
0  0 13 0

0101000
+144 0 *
Ve
1e-07
76 138 -68
0 0

0101101
*
Ed
 1e-07 1 1 0
1  14 0 0 12
2  19 15 0 0 12
2  20 16 0 0 12
0

0101000
-149 0 +142 0 *
Ve
1e-07
76 138 -61.2
0 0

0101101
*
Ed
 1e-07 1 1 0
1  15 0 0 12
2  21 15 0 0 12
2  22 12 0 0 12
0

0101000
-147 0 +140 0 *
Ed
 1e-07 1 1 0
1  16 0 0 6.8
2  23 10 0 0 6.8
2  24 15 0 0 6.8
0

0101000
-140 0 +142 0 *
Wi

0101100
-141 0 -146 0 +139 0 +138 0 *
Fa
0  1e-07 15 0

0101000
+137 0 *
Ed
 1e-07 1 1 0
1  17 0 0 105
2  25 10 0 0 105
2  26 12 0 0 105
0

0101000
-140 0 +156 0 *
Wi

0101100
-135 0 -139 0 +153 0 +145 0 *
Ve
1e-07
84.1 132 -61.2
0 0

0101101
*
Ed
 1e-07 1 1 0
1  18 0 0 6.28318530717959
2  27 12 0 0 6.28318530717959
2  28 17 0 0 6.28318530717959
0

0101100
+133 0 -133 0 *
Wi

0101100
-132 0 *
Fa
0  1e-07 12 0

0101000
+134 0 +131 0 *
Ve
1e-07
84.1 132 -68
0 0

0101101
*
Ed
 1e-07 1 1 0
1  19 0 1 7.8
3  29 30CN 17 0 1 7.8
0

0101000
+129 0 -133 0 *
Ed
 1e-07 1 1 0
1  20 0 0 6.28318530717959
2  31 16 0 0 6.28318530717959
2  32 17 0 0 6.28318530717959
0

0101100
+129 0 -129 0 *
Wi

0101100
-132 0 +128 0 +127 0 -128 0 *
Fa
0  1e-07 17 0

0101000
+126 0 *
Ve
1.5e-07
76 115 -68
0 0

0101101
*
Ed
 1e-07 1 1 0
1  21 0 82 105
2  33 10 0 82 105
2  34 16 0 82 105
0

0101000
+124 0 -142 0 *
Ve
1.5e-07
76 115 -62
0 0

0101101
*
Ed
 1.5e-07 1 1 0
1  22 0 0 6
2  35 10 0 0 6
2  36 18 0 0 6
0

0101000
+124 0 -122 0 *
Ve
1.5e-07
76 97 -62
0 0

0101101
*
Ed
 1.5e-07 1 1 0
1  23 0 -50 -32
2  37 10 0 -50 -32
2  38 19 0 -50 -32
0

0101000
+122 0 -120 0 *
Ve
1.5e-07
76 97 -68
0 0

0101101
*
Ed
 1.5e-07 1 1 0
1  24 0 0 6
2  39 10 0 0 6
2  40 20 0 0 6
0

0101000
+118 0 -120 0 *
Ve
1.5e-07
76 51 -68
0 0

0101101
*
Ed
 1e-07 1 1 0
1  21 0 18 64
2  33 10 0 18 64
2  34 16 0 18 64
0

0101000
+116 0 -118 0 *
Ve
1.5e-07
76 51 -62
0 0

0101101
*
Ed
 1.5e-07 1 1 0
1  25 0 0 6
2  41 10 0 0 6
2  42 21 0 0 6
0

0101000
+116 0 -114 0 *
Ed
 1.5e-07 1 1 0
1  26 0 -18 0
2  43 10 0 -18 0
2  44 9 0 -18 0
0

0101000
+114 0 -158 0 *
Wi

0101100
-155 0 -135 0 +138 0 +123 0 -121 0 -119 0 +117 0 +115 0 -113 0 -112 0 
*
Fa
0  1e-07 10 0

0101000
+111 0 *
Ve
1.5e-07
-76 51 -68
0 0

0101101
*
Ve
1.5e-07
-76 51 -61.2
0 0

0101101
*
Ed
 1e-07 1 1 0
1  27 0 0 6.8
0

0101000
+109 0 -108 0 *
Ve
1.50000014210855e-07
-83.5979797464467 51 -61.2
0 0

0101101
*
Ed
 1.5e-07 1 1 0
1  28 0 2.20101012677665 9.79898987322332
2  45 23 0 2.20101012677665 9.79898987322332
2  46 3 0 2.20101012677665 9.79898987322332
0

0101000
+106 0 -108 0 *
Ve
1.00000041583447e-07
-83.5979797464467 51 -26.5699077905815
0 0

0101101
*
Ed
 1e-07 1 1 0
1  29 0 6.8 41.4300922094185
2  47 4 0 6.8 41.4300922094185
2  48 23 0 6.8 41.4300922094185
0

0101000
+106 0 -104 0 *
Ve
1.00000003552714e-07
4.40202025355335 51 -26.5699077905814
0 0

0101101
*
Ed
 1e-07 1 1 0
1  30 0 2.11405035865198 4.1691349485276
2  49 23 0 2.11405035865198 4.1691349485276
2  50 6 0 2.11405035865198 4.1691349485276
0

0101000
+102 0 -104 0 *
Ve
1.5e-07
4.40202025355335 51 -62
0 0

0101101
*
Ed
 1e-07 1 1 0
1  31 0 6 41.4300922094186
2  51 7 0 6 41.4300922094186
2  52 23 0 6 41.4300922094186
0

0101000
+100 0 -102 0 *
Ed
 1e-07 1 1 0
1  32 0 92.4020202535533 164
2  53 21 0 92.4020202535533 164
2  54 9 0 92.4020202535533 164
0

0101000
+100 0 -114 0 *
Ed
 1e-07 1 1 0
1  33 0 0 152
0

0101000
+109 0 -116 0 *
Wi

0101100
+107 0 -105 0 +103 0 -101 0 -99 0 +98 0 -113 0 -97 0 *
Fa
0  0 22 0

0101000
+96 0 *
Ve
1.5e-07
-76 97 -61.2
0 0

0101101
*
Ed
 1e-07 1 1 0
1  34 0 18 64
2  55 24 0 18 64
2  56 3 0 18 64
0

0101000
+108 0 -94 0 *
Ve
1.5e-07
-76 97 -68
0 0

0101101
*
Ed
 1e-07 1 1 0
1  35 0 18 64
2  57 24 0 18 64
2  58 25 0 18 64
0

0101000
+109 0 -92 0 *
Ed
 1e-07 1 1 0
1  36 0 0 6.8
0

0101000
+92 0 -94 0 *
Wi

0101100
-93 0 -107 0 +91 0 +90 0 *
Fa
0  1e-07 24 0

0101000
+89 0 *
Ve
1.5e-07
4.40202025355335 97 -62
0 0

0101101
*
Ve
1.00000003552714e-07
4.40202025355335 97 -26.5699077905814
0 0

0101101
*
Ed
 1e-07 1 1 0
1  37 0 6 41.4300922094186
2  59 27 0 6 41.4300922094186
2  60 28 0 6 41.4300922094186
0

0101000
+87 0 -86 0 *
Ed
 1e-07 1 1 0
1  38 0 92.4020202535533 164
2  61 20 0 92.4020202535533 164
2  62 19 0 92.4020202535533 164
0

0101000
+87 0 -120 0 *
Ed
 1e-07 1 1 0
1  39 0 0 152
0

0101000
+118 0 -92 0 *
Ve
1.50000014210855e-07
-83.5979797464467 97 -61.2
0 0

0101101
*
Ed
 1.5e-07 1 1 0
1  40 0 2.20101012677665 9.79898987322332
2  63 28 0 2.20101012677665 9.79898987322332
2  64 3 0 2.20101012677665 9.79898987322332
0

0101000
+82 0 -94 0 *
Ve
1.00000041583447e-07
-83.5979797464467 97 -26.5699077905815
0 0

0101101
*
Ed
 1e-07 1 1 0
1  41 0 6.8 41.4300922094185
2  65 29 0 6.8 41.4300922094185
2  66 28 0 6.8 41.4300922094185
0

0101000
+82 0 -80 0 *
Ed
 1e-07 1 1 0
1  42 0 2.11405035865198 4.1691349485276
2  67 28 0 2.11405035865198 4.1691349485276
2  68 30 0 2.11405035865198 4.1691349485276
0

0101000
+86 0 -80 0 *
Wi

0101100
-85 0 +84 0 -117 0 +83 0 +90 0 -81 0 +79 0 -78 0 *
Fa
0  0 26 0

0101000
+77 0 *
Ve
1.00000003552714e-07
4.40202025355335 115 -26.5699077905814
0 0

0101101
*
Ed
 1e-07 1 1 0
1  43 0 1 19
2  69 27 0 1 19
2  70 30 0 1 19
0

0101000
+86 0 -75 0 *
Ve
1.00000041583447e-07
-83.5979797464467 115 -26.5699077905815
0 0

0101101
*
Ed
 1e-07 1 1 0
1  44 0 2.11405035865198 4.1691349485276
2  71 31 0 2.11405035865198 4.1691349485276
2  72 30 0 2.11405035865198 4.1691349485276
0

0101000
+75 0 -73 0 *
Ed
 1e-07 1 1 0
1  45 0 1 19
2  73 29 0 1 19
2  74 30 0 1 19
0

0101000
+80 0 -73 0 *
Wi

0101100
+78 0 -74 0 -72 0 +71 0 *
Fa
0  1e-07 30 0

0101000
+70 0 *
Ve
1.50000014210855e-07
-83.5979797464467 115 -61.2
0 0

0101101
*
Ed
 1e-07 1 1 0
1  46 0 6.8 41.4300922094185
2  75 29 0 6.8 41.4300922094185
2  76 31 0 6.8 41.4300922094185
0

0101000
+68 0 -73 0 *
Ed
 1.5e-07 1 1 0
1  47 0 -50 -32
2  77 29 0 -50 -32
2  78 3 0 -50 -32
0

0101000
+68 0 -82 0 *
Wi

0101100
-79 0 -71 0 +67 0 -66 0 *
Fa
0  1e-07 29 0

0101000
+65 0 *
Ve
1.5e-07
4.40202025355335 115 -62
0 0

0101101
*
Ed
 1e-07 1 1 0
1  48 0 6 41.4300922094186
2  79 27 0 6 41.4300922094186
2  80 31 0 6 41.4300922094186
0

0101000
+63 0 -75 0 *
Ed
 1.5e-07 1 1 0
1  49 0 -18 0
2  81 27 0 -18 0
2  82 19 0 -18 0
0

0101000
+63 0 -87 0 *
Wi

0101100
-85 0 -74 0 +62 0 -61 0 *
Fa
0  1e-07 27 0

0101000
+60 0 *
Ed
 1e-07 1 1 0
1  50 0 92.4020202535533 164
2  83 18 0 92.4020202535533 164
2  84 19 0 92.4020202535533 164
0

0101000
+63 0 -122 0 *
Wi

0101100
-58 0 -119 0 +84 0 +61 0 *
Fa
0  1e-07 19 0

0101000
+57 0 *
Ve
1.5e-07
-76 115 -68
0 0

0101101
*
Ed
 1e-07 1 1 0
1  51 0 0 152
0

0101000
+55 0 -124 0 *
Ve
1.5e-07
-76 115 -61.2
0 0

0101101
*
Ed
 1e-07 1 1 0
1  52 0 0 6.8
0

0101000
+53 0 -55 0 *
Ed
 1.5e-07 1 1 0
1  53 0 2.20101012677665 9.79898987322332
2  85 31 0 2.20101012677665 9.79898987322332
2  86 3 0 2.20101012677665 9.79898987322332
0

0101000
+68 0 -53 0 *
Wi

0101100
-62 0 +58 0 -121 0 -54 0 -52 0 -51 0 +67 0 -72 0 *
Fa
0  0 32 0

0101000
+50 0 *
Ve
1e-07
-76 138 -61.2
0 0

0101101
*
Ed
 1e-07 1 1 0
1  34 0 82 105
2  55 24 0 82 105
2  56 3 0 82 105
0

0101000
+53 0 -48 0 *
Ve
1e-07
-76 138 -68
0 0

0101101
*
Ed
 1e-07 1 1 0
1  35 0 82 105
2  57 24 0 82 105
2  58 25 0 82 105
0

0101000
+55 0 -46 0 *
Ed
 1e-07 1 1 0
1  54 0 0 6.8
2  87 24 0 0 6.8
2  88 33 0 0 6.8
0

0101000
-48 0 +46 0 *
Wi

0101100
-47 0 +52 0 +45 0 +44 0 *
Fa
0  1e-07 24 0

0101000
+43 0 *
Ve
1e-07
-88 138 -68
0 0

0101101
*
Ed
 1e-07 1 1 0
1  55 0 0 12
2  89 33 0 0 12
2  90 25 0 0 12
0

0101000
-46 0 +41 0 *
Ve
1e-07
-88 138 -61.2
0 0

0101101
*
Ed
 1e-07 1 1 0
1  56 0 0 12
2  91 33 0 0 12
2  92 3 0 0 12
0

0101000
-48 0 +39 0 *
Ed
 1e-07 1 1 0
1  57 0 0 6.8
2  93 34 0 0 6.8
2  94 33 0 0 6.8
0

0101000
-39 0 +41 0 *
Wi

0101100
-40 0 -44 0 +38 0 +37 0 *
Fa
0  1e-07 33 0

0101000
+36 0 *
Ed
 1.5e-07 1 1 0
1  58 0 -18 0
2  95 7 0 -18 0
2  96 9 0 -18 0
0

0101000
+100 0 -160 0 *
Wi

0101100
-98 0 -112 0 +157 0 +34 0 *
Fa
0  1e-07 9 0

0101000
+33 0 *
Ed
 1e-07 1 1 0
1  59 0 1 19
2  97 7 0 1 19
2  98 6 0 1 19
0

0101000
+162 0 -102 0 *
Wi

0101100
-159 0 -31 0 +99 0 -34 0 *
Fa
0  1e-07 7 0

0101000
+30 0 *
Ed
 1e-07 1 1 0
1  60 0 1 19
2  99 4 0 1 19
2  100 6 0 1 19
0

0101000
+164 0 -104 0 *
Wi

0101100
+161 0 -31 0 -101 0 +28 0 *
Fa
0  1e-07 6 0

0101000
+27 0 *
Ed
 1.5e-07 1 1 0
1  61 0 -18 0
2  101 4 0 -18 0
2  102 3 0 -18 0
0

0101000
+106 0 -166 0 *
Wi

0101100
-163 0 -28 0 +103 0 -25 0 *
Fa
0  1e-07 4 0

0101000
+24 0 *
Ed
 1e-07 1 1 0
1  62 0 0 105
2  103 34 0 0 105
2  104 3 0 0 105
0

0101000
-39 0 +168 0 *
Wi

0101100
-38 0 +47 0 -22 0 +51 0 +165 0 -66 0 -25 0 -81 0 +105 0 +93 0 
*
Ve
1e-07
-79.9 132 -61.2
0 0

0101101
*
Ed
 1e-07 1 1 0
1  63 0 0 6.28318530717959
2  105 3 0 0 6.28318530717959
2  106 35 0 0 6.28318530717959
0

0101100
+20 0 -20 0 *
Wi

0101100
-19 0 *
Fa
0  1e-07 3 0

0101000
+21 0 +18 0 *
Ve
1e-07
-79.9 132 -68
0 0

0101101
*
Ed
 1e-07 1 1 0
1  64 0 1 7.8
3  107 108CN 35 0 1 7.8
0

0101000
+16 0 -20 0 *
Ed
 1e-07 1 1 0
1  65 0 0 6.28318530717959
2  109 25 0 0 6.28318530717959
2  110 35 0 0 6.28318530717959
0

0101100
+16 0 -16 0 *
Wi

0101100
-19 0 +15 0 +14 0 -15 0 *
Fa
0  1e-07 35 0

0101000
+13 0 *
Ed
 1e-07 1 1 0
1  66 0 0 105
0

0101000
+171 0 -41 0 *
Wi

0101100
+11 0 +37 0 -22 0 +167 0 *
Fa
0  0 36 0

0101000
+10 0 *
Wi

0101100
-148 0 -141 0 -123 0 -54 0 +45 0 -40 0 -11 0 +169 0 *
Wi

0101100
+91 0 -83 0 -115 0 -97 0 *
Wi

0101100
-14 0 *
Wi

0101100
-127 0 *
Fa
0  0 37 0

0101000
+8 0 +7 0 +6 0 +5 0 *
Sh

0101100
-150 0 +143 0 +136 0 +130 0 -125 0 -110 0 +95 0 +88 0 -76 0 -69 0 
-64 0 +59 0 +56 0 +49 0 +42 0 +35 0 +32 0 +29 0 -26 0 -23 0 
+17 0 -12 0 -9 0 -4 0 *
So

0100000
+3 0 *
Co

1100000
+2 0 *

+1 0 